G04 #@! TF.GenerationSoftware,KiCad,Pcbnew,(5.1.5)-3*
G04 #@! TF.CreationDate,2020-05-01T17:56:44+02:00*
G04 #@! TF.ProjectId,artDecoEarrings,61727444-6563-46f4-9561-7272696e6773,rev?*
G04 #@! TF.SameCoordinates,Original*
G04 #@! TF.FileFunction,Soldermask,Bot*
G04 #@! TF.FilePolarity,Negative*
%FSLAX46Y46*%
G04 Gerber Fmt 4.6, Leading zero omitted, Abs format (unit mm)*
G04 Created by KiCad (PCBNEW (5.1.5)-3) date 2020-05-01 17:56:44*
%MOMM*%
%LPD*%
G04 APERTURE LIST*
%ADD10C,0.100000*%
G04 APERTURE END LIST*
D10*
G36*
X-5925922Y-2004197D02*
G01*
X-5873150Y-2014694D01*
X-5773730Y-2055875D01*
X-5684254Y-2115661D01*
X-5608161Y-2191754D01*
X-5548375Y-2281230D01*
X-5507194Y-2380650D01*
X-5486200Y-2486194D01*
X-5486200Y-2593806D01*
X-5507194Y-2699350D01*
X-5548375Y-2798770D01*
X-5608161Y-2888246D01*
X-5684254Y-2964339D01*
X-5773730Y-3024125D01*
X-5873150Y-3065306D01*
X-5925922Y-3075803D01*
X-5978693Y-3086300D01*
X-6086307Y-3086300D01*
X-6139078Y-3075803D01*
X-6191850Y-3065306D01*
X-6291270Y-3024125D01*
X-6380746Y-2964339D01*
X-6456839Y-2888246D01*
X-6516625Y-2798770D01*
X-6557806Y-2699350D01*
X-6578800Y-2593806D01*
X-6578800Y-2486194D01*
X-6557806Y-2380650D01*
X-6516625Y-2281230D01*
X-6456839Y-2191754D01*
X-6380746Y-2115661D01*
X-6291270Y-2055875D01*
X-6191850Y-2014694D01*
X-6139078Y-2004197D01*
X-6086307Y-1993700D01*
X-5978693Y-1993700D01*
X-5925922Y-2004197D01*
G37*
G36*
X-3893922Y-2004197D02*
G01*
X-3841150Y-2014694D01*
X-3741730Y-2055875D01*
X-3652254Y-2115661D01*
X-3576161Y-2191754D01*
X-3516375Y-2281230D01*
X-3475194Y-2380650D01*
X-3454200Y-2486194D01*
X-3454200Y-2593806D01*
X-3475194Y-2699350D01*
X-3516375Y-2798770D01*
X-3576161Y-2888246D01*
X-3652254Y-2964339D01*
X-3741730Y-3024125D01*
X-3841150Y-3065306D01*
X-3893922Y-3075803D01*
X-3946693Y-3086300D01*
X-4054307Y-3086300D01*
X-4107078Y-3075803D01*
X-4159850Y-3065306D01*
X-4259270Y-3024125D01*
X-4348746Y-2964339D01*
X-4424839Y-2888246D01*
X-4484625Y-2798770D01*
X-4525806Y-2699350D01*
X-4546800Y-2593806D01*
X-4546800Y-2486194D01*
X-4525806Y-2380650D01*
X-4484625Y-2281230D01*
X-4424839Y-2191754D01*
X-4348746Y-2115661D01*
X-4259270Y-2055875D01*
X-4159850Y-2014694D01*
X-4107078Y-2004197D01*
X-4054307Y-1993700D01*
X-3946693Y-1993700D01*
X-3893922Y-2004197D01*
G37*
G36*
X-5521786Y-842389D02*
G01*
X-5440855Y-875912D01*
X-5368020Y-924579D01*
X-5306079Y-986520D01*
X-5257412Y-1059355D01*
X-5223889Y-1140286D01*
X-5206800Y-1226201D01*
X-5206800Y-1313799D01*
X-5223889Y-1399714D01*
X-5257412Y-1480645D01*
X-5306079Y-1553480D01*
X-5368020Y-1615421D01*
X-5440855Y-1664088D01*
X-5440856Y-1664089D01*
X-5440857Y-1664089D01*
X-5521786Y-1697611D01*
X-5607699Y-1714700D01*
X-5695301Y-1714700D01*
X-5781214Y-1697611D01*
X-5862143Y-1664089D01*
X-5862144Y-1664089D01*
X-5862145Y-1664088D01*
X-5934980Y-1615421D01*
X-5996921Y-1553480D01*
X-6045588Y-1480645D01*
X-6079111Y-1399714D01*
X-6096200Y-1313799D01*
X-6096200Y-1226201D01*
X-6079111Y-1140286D01*
X-6045588Y-1059355D01*
X-5996921Y-986520D01*
X-5934980Y-924579D01*
X-5862145Y-875912D01*
X-5781214Y-842389D01*
X-5695301Y-825300D01*
X-5607699Y-825300D01*
X-5521786Y-842389D01*
G37*
G36*
X-4251786Y-842389D02*
G01*
X-4170855Y-875912D01*
X-4098020Y-924579D01*
X-4036079Y-986520D01*
X-3987412Y-1059355D01*
X-3953889Y-1140286D01*
X-3936800Y-1226201D01*
X-3936800Y-1313799D01*
X-3953889Y-1399714D01*
X-3987412Y-1480645D01*
X-4036079Y-1553480D01*
X-4098020Y-1615421D01*
X-4170855Y-1664088D01*
X-4170856Y-1664089D01*
X-4170857Y-1664089D01*
X-4251786Y-1697611D01*
X-4337699Y-1714700D01*
X-4425301Y-1714700D01*
X-4511214Y-1697611D01*
X-4592143Y-1664089D01*
X-4592144Y-1664089D01*
X-4592145Y-1664088D01*
X-4664980Y-1615421D01*
X-4726921Y-1553480D01*
X-4775588Y-1480645D01*
X-4809111Y-1399714D01*
X-4826200Y-1313799D01*
X-4826200Y-1226201D01*
X-4809111Y-1140286D01*
X-4775588Y-1059355D01*
X-4726921Y-986520D01*
X-4664980Y-924579D01*
X-4592145Y-875912D01*
X-4511214Y-842389D01*
X-4425301Y-825300D01*
X-4337699Y-825300D01*
X-4251786Y-842389D01*
G37*
G36*
X-566358Y770219D02*
G01*
X-420586Y709838D01*
X-420584Y709837D01*
X-289392Y622178D01*
X-177822Y510608D01*
X-90163Y379416D01*
X-90162Y379414D01*
X-29781Y233642D01*
X1000Y78893D01*
X1000Y-78893D01*
X-29781Y-233642D01*
X-50424Y-283478D01*
X-90163Y-379416D01*
X-177822Y-510608D01*
X-289392Y-622178D01*
X-420584Y-709837D01*
X-420585Y-709838D01*
X-420586Y-709838D01*
X-566358Y-770219D01*
X-721107Y-801000D01*
X-878893Y-801000D01*
X-1033642Y-770219D01*
X-1179414Y-709838D01*
X-1179415Y-709838D01*
X-1179416Y-709837D01*
X-1310608Y-622178D01*
X-1422178Y-510608D01*
X-1509837Y-379416D01*
X-1549576Y-283478D01*
X-1570219Y-233642D01*
X-1601000Y-78893D01*
X-1601000Y78893D01*
X-1570219Y233642D01*
X-1509838Y379414D01*
X-1509837Y379416D01*
X-1422178Y510608D01*
X-1310608Y622178D01*
X-1179416Y709837D01*
X-1179414Y709838D01*
X-1033642Y770219D01*
X-878893Y801000D01*
X-721107Y801000D01*
X-566358Y770219D01*
G37*
G36*
X1833642Y770219D02*
G01*
X1979414Y709838D01*
X1979416Y709837D01*
X2110608Y622178D01*
X2222178Y510608D01*
X2309837Y379416D01*
X2309838Y379414D01*
X2370219Y233642D01*
X2401000Y78893D01*
X2401000Y-78893D01*
X2370219Y-233642D01*
X2349576Y-283478D01*
X2309837Y-379416D01*
X2222178Y-510608D01*
X2110608Y-622178D01*
X1979416Y-709837D01*
X1979415Y-709838D01*
X1979414Y-709838D01*
X1833642Y-770219D01*
X1678893Y-801000D01*
X1521107Y-801000D01*
X1366358Y-770219D01*
X1220586Y-709838D01*
X1220585Y-709838D01*
X1220584Y-709837D01*
X1089392Y-622178D01*
X977822Y-510608D01*
X890163Y-379416D01*
X850424Y-283478D01*
X829781Y-233642D01*
X799000Y-78893D01*
X799000Y78893D01*
X829781Y233642D01*
X890162Y379414D01*
X890163Y379416D01*
X977822Y510608D01*
X1089392Y622178D01*
X1220584Y709837D01*
X1220586Y709838D01*
X1366358Y770219D01*
X1521107Y801000D01*
X1678893Y801000D01*
X1833642Y770219D01*
G37*
G36*
X-7866358Y770219D02*
G01*
X-7720586Y709838D01*
X-7720584Y709837D01*
X-7589392Y622178D01*
X-7477822Y510608D01*
X-7390163Y379416D01*
X-7390162Y379414D01*
X-7329781Y233642D01*
X-7299000Y78893D01*
X-7299000Y-78893D01*
X-7329781Y-233642D01*
X-7350424Y-283478D01*
X-7390163Y-379416D01*
X-7477822Y-510608D01*
X-7589392Y-622178D01*
X-7720584Y-709837D01*
X-7720585Y-709838D01*
X-7720586Y-709838D01*
X-7866358Y-770219D01*
X-8021107Y-801000D01*
X-8178893Y-801000D01*
X-8333642Y-770219D01*
X-8479414Y-709838D01*
X-8479415Y-709838D01*
X-8479416Y-709837D01*
X-8610608Y-622178D01*
X-8722178Y-510608D01*
X-8809837Y-379416D01*
X-8849576Y-283478D01*
X-8870219Y-233642D01*
X-8901000Y-78893D01*
X-8901000Y78893D01*
X-8870219Y233642D01*
X-8809838Y379414D01*
X-8809837Y379416D01*
X-8722178Y510608D01*
X-8610608Y622178D01*
X-8479416Y709837D01*
X-8479414Y709838D01*
X-8333642Y770219D01*
X-8178893Y801000D01*
X-8021107Y801000D01*
X-7866358Y770219D01*
G37*
G36*
X-4251786Y427611D02*
G01*
X-4170855Y394088D01*
X-4098020Y345421D01*
X-4036079Y283480D01*
X-3987412Y210645D01*
X-3953889Y129714D01*
X-3936800Y43799D01*
X-3936800Y-43799D01*
X-3953889Y-129714D01*
X-3987412Y-210645D01*
X-4036079Y-283480D01*
X-4098020Y-345421D01*
X-4170855Y-394088D01*
X-4170856Y-394089D01*
X-4170857Y-394089D01*
X-4251786Y-427611D01*
X-4337699Y-444700D01*
X-4425301Y-444700D01*
X-4511214Y-427611D01*
X-4592143Y-394089D01*
X-4592144Y-394089D01*
X-4592145Y-394088D01*
X-4664980Y-345421D01*
X-4726921Y-283480D01*
X-4775588Y-210645D01*
X-4809111Y-129714D01*
X-4826200Y-43799D01*
X-4826200Y43799D01*
X-4809111Y129714D01*
X-4775588Y210645D01*
X-4726921Y283480D01*
X-4664980Y345421D01*
X-4592145Y394088D01*
X-4511214Y427611D01*
X-4425301Y444700D01*
X-4337699Y444700D01*
X-4251786Y427611D01*
G37*
G36*
X-5521786Y427611D02*
G01*
X-5440855Y394088D01*
X-5368020Y345421D01*
X-5306079Y283480D01*
X-5257412Y210645D01*
X-5223889Y129714D01*
X-5206800Y43799D01*
X-5206800Y-43799D01*
X-5223889Y-129714D01*
X-5257412Y-210645D01*
X-5306079Y-283480D01*
X-5368020Y-345421D01*
X-5440855Y-394088D01*
X-5440856Y-394089D01*
X-5440857Y-394089D01*
X-5521786Y-427611D01*
X-5607699Y-444700D01*
X-5695301Y-444700D01*
X-5781214Y-427611D01*
X-5862143Y-394089D01*
X-5862144Y-394089D01*
X-5862145Y-394088D01*
X-5934980Y-345421D01*
X-5996921Y-283480D01*
X-6045588Y-210645D01*
X-6079111Y-129714D01*
X-6096200Y-43799D01*
X-6096200Y43799D01*
X-6079111Y129714D01*
X-6045588Y210645D01*
X-5996921Y283480D01*
X-5934980Y345421D01*
X-5862145Y394088D01*
X-5781214Y427611D01*
X-5695301Y444700D01*
X-5607699Y444700D01*
X-5521786Y427611D01*
G37*
G36*
X-5521786Y1697611D02*
G01*
X-5440855Y1664088D01*
X-5368020Y1615421D01*
X-5306079Y1553480D01*
X-5257412Y1480645D01*
X-5223889Y1399714D01*
X-5206800Y1313799D01*
X-5206800Y1226201D01*
X-5223889Y1140286D01*
X-5257412Y1059355D01*
X-5306079Y986520D01*
X-5368020Y924579D01*
X-5440855Y875912D01*
X-5440856Y875911D01*
X-5440857Y875911D01*
X-5521786Y842389D01*
X-5607699Y825300D01*
X-5695301Y825300D01*
X-5781214Y842389D01*
X-5862143Y875911D01*
X-5862144Y875911D01*
X-5862145Y875912D01*
X-5934980Y924579D01*
X-5996921Y986520D01*
X-6045588Y1059355D01*
X-6079111Y1140286D01*
X-6096200Y1226201D01*
X-6096200Y1313799D01*
X-6079111Y1399714D01*
X-6045588Y1480645D01*
X-5996921Y1553480D01*
X-5934980Y1615421D01*
X-5862145Y1664088D01*
X-5781214Y1697611D01*
X-5695301Y1714700D01*
X-5607699Y1714700D01*
X-5521786Y1697611D01*
G37*
G36*
X-4251786Y1697611D02*
G01*
X-4170855Y1664088D01*
X-4098020Y1615421D01*
X-4036079Y1553480D01*
X-3987412Y1480645D01*
X-3953889Y1399714D01*
X-3936800Y1313799D01*
X-3936800Y1226201D01*
X-3953889Y1140286D01*
X-3987412Y1059355D01*
X-4036079Y986520D01*
X-4098020Y924579D01*
X-4170855Y875912D01*
X-4170856Y875911D01*
X-4170857Y875911D01*
X-4251786Y842389D01*
X-4337699Y825300D01*
X-4425301Y825300D01*
X-4511214Y842389D01*
X-4592143Y875911D01*
X-4592144Y875911D01*
X-4592145Y875912D01*
X-4664980Y924579D01*
X-4726921Y986520D01*
X-4775588Y1059355D01*
X-4809111Y1140286D01*
X-4826200Y1226201D01*
X-4826200Y1313799D01*
X-4809111Y1399714D01*
X-4775588Y1480645D01*
X-4726921Y1553480D01*
X-4664980Y1615421D01*
X-4592145Y1664088D01*
X-4511214Y1697611D01*
X-4425301Y1714700D01*
X-4337699Y1714700D01*
X-4251786Y1697611D01*
G37*
G36*
X-4909922Y3075803D02*
G01*
X-4857150Y3065306D01*
X-4757730Y3024125D01*
X-4668254Y2964339D01*
X-4592161Y2888246D01*
X-4532375Y2798770D01*
X-4491194Y2699350D01*
X-4470200Y2593806D01*
X-4470200Y2486194D01*
X-4491194Y2380650D01*
X-4532375Y2281230D01*
X-4592161Y2191754D01*
X-4668254Y2115661D01*
X-4757730Y2055875D01*
X-4857150Y2014694D01*
X-4909922Y2004197D01*
X-4962693Y1993700D01*
X-5070307Y1993700D01*
X-5123078Y2004197D01*
X-5175850Y2014694D01*
X-5275270Y2055875D01*
X-5364746Y2115661D01*
X-5440839Y2191754D01*
X-5500625Y2281230D01*
X-5541806Y2380650D01*
X-5562800Y2486194D01*
X-5562800Y2593806D01*
X-5541806Y2699350D01*
X-5500625Y2798770D01*
X-5440839Y2888246D01*
X-5364746Y2964339D01*
X-5275270Y3024125D01*
X-5175850Y3065306D01*
X-5123078Y3075803D01*
X-5070307Y3086300D01*
X-4962693Y3086300D01*
X-4909922Y3075803D01*
G37*
M02*
