G04 #@! TF.GenerationSoftware,KiCad,Pcbnew,(5.1.5)-3*
G04 #@! TF.CreationDate,2020-05-01T17:56:44+02:00*
G04 #@! TF.ProjectId,artDecoEarrings,61727444-6563-46f4-9561-7272696e6773,rev?*
G04 #@! TF.SameCoordinates,Original*
G04 #@! TF.FileFunction,Legend,Top*
G04 #@! TF.FilePolarity,Positive*
%FSLAX46Y46*%
G04 Gerber Fmt 4.6, Leading zero omitted, Abs format (unit mm)*
G04 Created by KiCad (PCBNEW (5.1.5)-3) date 2020-05-01 17:56:44*
%MOMM*%
%LPD*%
G04 APERTURE LIST*
%ADD10C,0.100000*%
%ADD11C,0.120000*%
%ADD12C,0.060000*%
%ADD13C,0.080000*%
%ADD14C,0.090000*%
G04 APERTURE END LIST*
D10*
G36*
X4650000Y1100000D02*
G01*
X15800000Y1150000D01*
X27450000Y1000000D01*
X4200000Y1000000D01*
X4200000Y1200000D01*
X4650000Y1200000D01*
X4650000Y1100000D01*
G37*
G36*
X27450000Y1000000D02*
G01*
X15800000Y1150000D01*
X4650000Y1300000D01*
X4650000Y1200000D01*
X4200000Y1200000D01*
X4200000Y1400000D01*
X27450000Y1000000D01*
G37*
G36*
X27450000Y1000000D02*
G01*
X4200000Y1600000D01*
X4200000Y1800000D01*
X27450000Y1000000D01*
G37*
G36*
X15850000Y-1150000D02*
G01*
X4700000Y-1100000D01*
X4700000Y-1200000D01*
X4250000Y-1200000D01*
X4250000Y-1000000D01*
X27500000Y-1000000D01*
X15850000Y-1150000D01*
G37*
G36*
X4250000Y-1400000D02*
G01*
X4250000Y-1200000D01*
X4700000Y-1200000D01*
X4700000Y-1300000D01*
X15850000Y-1150000D01*
X27500000Y-1000000D01*
X4250000Y-1400000D01*
G37*
G36*
X4250000Y-1800000D02*
G01*
X4250000Y-1600000D01*
X27500000Y-1000000D01*
X4250000Y-1800000D01*
G37*
G36*
X28000000Y0D02*
G01*
X27250000Y0D01*
X27250000Y250000D01*
X28000000Y0D01*
G37*
D11*
X1385000Y-2110000D02*
X2110000Y-2110000D01*
X-2110000Y2110000D02*
X-2110000Y1385000D01*
X-1385000Y2110000D02*
X-2110000Y2110000D01*
X2110000Y2110000D02*
X2110000Y1385000D01*
X1385000Y2110000D02*
X2110000Y2110000D01*
X-2110000Y-2110000D02*
X-2110000Y-1385000D01*
X-1385000Y-2110000D02*
X-2110000Y-2110000D01*
X-6313000Y-1610000D02*
X-6163000Y-1610000D01*
X-6313000Y-960000D02*
X-6313000Y-1610000D01*
X-6313000Y1610000D02*
X-6163000Y1610000D01*
X-6313000Y960000D02*
X-6313000Y1610000D01*
X-3593000Y-1610000D02*
X-3743000Y-1610000D01*
X-3593000Y-960000D02*
X-3593000Y-1610000D01*
D12*
X2550000Y600000D02*
X3150000Y600000D01*
X2550000Y-400000D02*
X2550000Y600000D01*
X3550000Y-400000D02*
X2550000Y-400000D01*
X3550000Y200000D02*
X3550000Y-400000D01*
D13*
X5700000Y0D02*
X5600000Y-100000D01*
X5700000Y0D02*
X5600000Y100000D01*
X5300000Y0D02*
X5700000Y0D01*
D10*
G36*
X5100000Y1000000D02*
G01*
X5100000Y-1000000D01*
X5400000Y-1000000D01*
X5400000Y1000000D01*
X5100000Y1000000D01*
G37*
X5100000Y1000000D02*
X5100000Y-1000000D01*
X5400000Y-1000000D01*
X5400000Y1000000D01*
X5100000Y1000000D01*
X6200000Y-1000000D02*
X3800000Y-1000000D01*
X6200000Y1000000D02*
X6200000Y-1000000D01*
X3800000Y1000000D02*
X6200000Y1000000D01*
X3800000Y-1000000D02*
X3800000Y1000000D01*
D13*
X8700000Y0D02*
X8600000Y-100000D01*
X8700000Y0D02*
X8600000Y100000D01*
X8300000Y0D02*
X8700000Y0D01*
D10*
G36*
X8100000Y1000000D02*
G01*
X8100000Y-1000000D01*
X8400000Y-1000000D01*
X8400000Y1000000D01*
X8100000Y1000000D01*
G37*
X8100000Y1000000D02*
X8100000Y-1000000D01*
X8400000Y-1000000D01*
X8400000Y1000000D01*
X8100000Y1000000D01*
X9200000Y-1000000D02*
X6800000Y-1000000D01*
X9200000Y1000000D02*
X9200000Y-1000000D01*
X6800000Y1000000D02*
X9200000Y1000000D01*
X6800000Y-1000000D02*
X6800000Y1000000D01*
D13*
X11700000Y0D02*
X11600000Y-100000D01*
X11700000Y0D02*
X11600000Y100000D01*
X11300000Y0D02*
X11700000Y0D01*
D10*
G36*
X11100000Y1000000D02*
G01*
X11100000Y-1000000D01*
X11400000Y-1000000D01*
X11400000Y1000000D01*
X11100000Y1000000D01*
G37*
X11100000Y1000000D02*
X11100000Y-1000000D01*
X11400000Y-1000000D01*
X11400000Y1000000D01*
X11100000Y1000000D01*
X12200000Y-1000000D02*
X9800000Y-1000000D01*
X12200000Y1000000D02*
X12200000Y-1000000D01*
X9800000Y1000000D02*
X12200000Y1000000D01*
X9800000Y-1000000D02*
X9800000Y1000000D01*
D13*
X14700000Y0D02*
X14600000Y-100000D01*
X14700000Y0D02*
X14600000Y100000D01*
X14300000Y0D02*
X14700000Y0D01*
D10*
G36*
X14100000Y1000000D02*
G01*
X14100000Y-1000000D01*
X14400000Y-1000000D01*
X14400000Y1000000D01*
X14100000Y1000000D01*
G37*
X14100000Y1000000D02*
X14100000Y-1000000D01*
X14400000Y-1000000D01*
X14400000Y1000000D01*
X14100000Y1000000D01*
X15200000Y-1000000D02*
X12800000Y-1000000D01*
X15200000Y1000000D02*
X15200000Y-1000000D01*
X12800000Y1000000D02*
X15200000Y1000000D01*
X12800000Y-1000000D02*
X12800000Y1000000D01*
D13*
X17700000Y0D02*
X17600000Y-100000D01*
X17700000Y0D02*
X17600000Y100000D01*
X17300000Y0D02*
X17700000Y0D01*
D10*
G36*
X17100000Y1000000D02*
G01*
X17100000Y-1000000D01*
X17400000Y-1000000D01*
X17400000Y1000000D01*
X17100000Y1000000D01*
G37*
X17100000Y1000000D02*
X17100000Y-1000000D01*
X17400000Y-1000000D01*
X17400000Y1000000D01*
X17100000Y1000000D01*
X18200000Y-1000000D02*
X15800000Y-1000000D01*
X18200000Y1000000D02*
X18200000Y-1000000D01*
X15800000Y1000000D02*
X18200000Y1000000D01*
X15800000Y-1000000D02*
X15800000Y1000000D01*
D13*
X20700000Y0D02*
X20600000Y-100000D01*
X20700000Y0D02*
X20600000Y100000D01*
X20300000Y0D02*
X20700000Y0D01*
D10*
G36*
X20100000Y1000000D02*
G01*
X20100000Y-1000000D01*
X20400000Y-1000000D01*
X20400000Y1000000D01*
X20100000Y1000000D01*
G37*
X20100000Y1000000D02*
X20100000Y-1000000D01*
X20400000Y-1000000D01*
X20400000Y1000000D01*
X20100000Y1000000D01*
X21200000Y-1000000D02*
X18800000Y-1000000D01*
X21200000Y1000000D02*
X21200000Y-1000000D01*
X18800000Y1000000D02*
X21200000Y1000000D01*
X18800000Y-1000000D02*
X18800000Y1000000D01*
D13*
X23700000Y0D02*
X23600000Y-100000D01*
X23700000Y0D02*
X23600000Y100000D01*
X23300000Y0D02*
X23700000Y0D01*
D10*
G36*
X23100000Y1000000D02*
G01*
X23100000Y-1000000D01*
X23400000Y-1000000D01*
X23400000Y1000000D01*
X23100000Y1000000D01*
G37*
X23100000Y1000000D02*
X23100000Y-1000000D01*
X23400000Y-1000000D01*
X23400000Y1000000D01*
X23100000Y1000000D01*
X24200000Y-1000000D02*
X21800000Y-1000000D01*
X24200000Y1000000D02*
X24200000Y-1000000D01*
X21800000Y1000000D02*
X24200000Y1000000D01*
X21800000Y-1000000D02*
X21800000Y1000000D01*
D13*
X26700000Y0D02*
X26600000Y-100000D01*
X26700000Y0D02*
X26600000Y100000D01*
X26300000Y0D02*
X26700000Y0D01*
D10*
G36*
X26100000Y1000000D02*
G01*
X26100000Y-1000000D01*
X26400000Y-1000000D01*
X26400000Y1000000D01*
X26100000Y1000000D01*
G37*
X26100000Y1000000D02*
X26100000Y-1000000D01*
X26400000Y-1000000D01*
X26400000Y1000000D01*
X26100000Y1000000D01*
X27200000Y-1000000D02*
X24800000Y-1000000D01*
X27200000Y1000000D02*
X27200000Y-1000000D01*
X24800000Y1000000D02*
X27200000Y1000000D01*
X24800000Y-1000000D02*
X24800000Y1000000D01*
X1716666Y-3178571D02*
X1692857Y-3202380D01*
X1621428Y-3226190D01*
X1573809Y-3226190D01*
X1502380Y-3202380D01*
X1454761Y-3154761D01*
X1430952Y-3107142D01*
X1407142Y-3011904D01*
X1407142Y-2940476D01*
X1430952Y-2845238D01*
X1454761Y-2797619D01*
X1502380Y-2750000D01*
X1573809Y-2726190D01*
X1621428Y-2726190D01*
X1692857Y-2750000D01*
X1716666Y-2773809D01*
X2192857Y-3226190D02*
X1907142Y-3226190D01*
X2050000Y-3226190D02*
X2050000Y-2726190D01*
X2002380Y-2797619D01*
X1954761Y-2845238D01*
X1907142Y-2869047D01*
X-6679428Y1186666D02*
X-6655619Y1162857D01*
X-6631809Y1091428D01*
X-6631809Y1043809D01*
X-6655619Y972380D01*
X-6703238Y924761D01*
X-6750857Y900952D01*
X-6846095Y877142D01*
X-6917523Y877142D01*
X-7012761Y900952D01*
X-7060380Y924761D01*
X-7108000Y972380D01*
X-7131809Y1043809D01*
X-7131809Y1091428D01*
X-7108000Y1162857D01*
X-7084190Y1186666D01*
X-7131809Y1353333D02*
X-7131809Y1662857D01*
X-6941333Y1496190D01*
X-6941333Y1567619D01*
X-6917523Y1615238D01*
X-6893714Y1639047D01*
X-6846095Y1662857D01*
X-6727047Y1662857D01*
X-6679428Y1639047D01*
X-6655619Y1615238D01*
X-6631809Y1567619D01*
X-6631809Y1424761D01*
X-6655619Y1377142D01*
X-6679428Y1353333D01*
X-3004333Y-2526190D02*
X-3171000Y-2288095D01*
X-3290047Y-2526190D02*
X-3290047Y-2026190D01*
X-3099571Y-2026190D01*
X-3051952Y-2050000D01*
X-3028142Y-2073809D01*
X-3004333Y-2121428D01*
X-3004333Y-2192857D01*
X-3028142Y-2240476D01*
X-3051952Y-2264285D01*
X-3099571Y-2288095D01*
X-3290047Y-2288095D01*
X-2813857Y-2073809D02*
X-2790047Y-2050000D01*
X-2742428Y-2026190D01*
X-2623380Y-2026190D01*
X-2575761Y-2050000D01*
X-2551952Y-2073809D01*
X-2528142Y-2121428D01*
X-2528142Y-2169047D01*
X-2551952Y-2240476D01*
X-2837666Y-2526190D01*
X-2528142Y-2526190D01*
D14*
X1345238Y-1555952D02*
X1345238Y-1879761D01*
X1364285Y-1917857D01*
X1383333Y-1936904D01*
X1421428Y-1955952D01*
X1497619Y-1955952D01*
X1535714Y-1936904D01*
X1554761Y-1917857D01*
X1573809Y-1879761D01*
X1573809Y-1555952D01*
X1745238Y-1594047D02*
X1764285Y-1575000D01*
X1802380Y-1555952D01*
X1897619Y-1555952D01*
X1935714Y-1575000D01*
X1954761Y-1594047D01*
X1973809Y-1632142D01*
X1973809Y-1670238D01*
X1954761Y-1727380D01*
X1726190Y-1955952D01*
X1973809Y-1955952D01*
D10*
X-5226809Y-380952D02*
X-4822047Y-380952D01*
X-4774428Y-357142D01*
X-4750619Y-333333D01*
X-4726809Y-285714D01*
X-4726809Y-190476D01*
X-4750619Y-142857D01*
X-4774428Y-119047D01*
X-4822047Y-95238D01*
X-5226809Y-95238D01*
X-5226809Y95238D02*
X-5226809Y404761D01*
X-5036333Y238095D01*
X-5036333Y309523D01*
X-5012523Y357142D01*
X-4988714Y380952D01*
X-4941095Y404761D01*
X-4822047Y404761D01*
X-4774428Y380952D01*
X-4750619Y357142D01*
X-4726809Y309523D01*
X-4726809Y166666D01*
X-4750619Y119047D01*
X-4774428Y95238D01*
X1716666Y2796428D02*
X1692857Y2772619D01*
X1621428Y2748809D01*
X1573809Y2748809D01*
X1502380Y2772619D01*
X1454761Y2820238D01*
X1430952Y2867857D01*
X1407142Y2963095D01*
X1407142Y3034523D01*
X1430952Y3129761D01*
X1454761Y3177380D01*
X1502380Y3225000D01*
X1573809Y3248809D01*
X1621428Y3248809D01*
X1692857Y3225000D01*
X1716666Y3201190D01*
X1907142Y3201190D02*
X1930952Y3225000D01*
X1978571Y3248809D01*
X2097619Y3248809D01*
X2145238Y3225000D01*
X2169047Y3201190D01*
X2192857Y3153571D01*
X2192857Y3105952D01*
X2169047Y3034523D01*
X1883333Y2748809D01*
X2192857Y2748809D01*
X3430952Y373809D02*
X3430952Y-30952D01*
X3407142Y-78571D01*
X3383333Y-102380D01*
X3335714Y-126190D01*
X3240476Y-126190D01*
X3192857Y-102380D01*
X3169047Y-78571D01*
X3145238Y-30952D01*
X3145238Y373809D01*
X2645238Y-126190D02*
X2930952Y-126190D01*
X2788095Y-126190D02*
X2788095Y373809D01*
X2835714Y302380D01*
X2883333Y254761D01*
X2930952Y230952D01*
X-3004333Y2073809D02*
X-3171000Y2311904D01*
X-3290047Y2073809D02*
X-3290047Y2573809D01*
X-3099571Y2573809D01*
X-3051952Y2550000D01*
X-3028142Y2526190D01*
X-3004333Y2478571D01*
X-3004333Y2407142D01*
X-3028142Y2359523D01*
X-3051952Y2335714D01*
X-3099571Y2311904D01*
X-3290047Y2311904D01*
X-2528142Y2073809D02*
X-2813857Y2073809D01*
X-2671000Y2073809D02*
X-2671000Y2573809D01*
X-2718619Y2502380D01*
X-2766238Y2454761D01*
X-2813857Y2430952D01*
M02*
