M48
; DRILL file {KiCad (5.1.5)-3} date 5/1/2020 17:56:56
; FORMAT={-:-/ absolute / inch / decimal}
; #@! TF.CreationDate,2020-05-01T17:56:56+02:00
; #@! TF.GenerationSoftware,Kicad,Pcbnew,(5.1.5)-3
; #@! TF.FileFunction,Plated,1,2,PTH
FMAT,2
INCH
T1C0.0100
T2C0.0394
%
G90
G05
T1
X-0.27Y0.02
X-0.25Y0.05
X-0.135Y0.0
X-0.123Y0.024
X-0.1091Y0.0012
X-0.0709Y-0.0551
X-0.065Y0.065
X0.0669Y0.063
X0.0827Y-0.0551
X0.1299Y-0.0384
X0.1309Y0.0384
X0.1575Y-0.0197
X0.1608Y0.0197
X0.1969Y0.0197
X0.1969Y-0.0197
X0.315Y0.0197
X0.315Y-0.0197
X0.4331Y0.0197
X0.4331Y-0.0197
X0.5512Y0.0197
X0.5512Y-0.0197
X0.6693Y0.0197
X0.6693Y-0.0197
X0.7874Y0.0197
X0.7874Y-0.0197
X0.9055Y0.0197
X0.9055Y-0.0197
X1.0236Y0.0197
X1.0236Y-0.0197
T2
X-0.3189Y0.0
T0
M30
