G04 #@! TF.GenerationSoftware,KiCad,Pcbnew,(5.1.5)-3*
G04 #@! TF.CreationDate,2020-05-01T17:56:44+02:00*
G04 #@! TF.ProjectId,artDecoEarrings,61727444-6563-46f4-9561-7272696e6773,rev?*
G04 #@! TF.SameCoordinates,Original*
G04 #@! TF.FileFunction,Paste,Top*
G04 #@! TF.FilePolarity,Positive*
%FSLAX46Y46*%
G04 Gerber Fmt 4.6, Leading zero omitted, Abs format (unit mm)*
G04 Created by KiCad (PCBNEW (5.1.5)-3) date 2020-05-01 17:56:44*
%MOMM*%
%LPD*%
G04 APERTURE LIST*
%ADD10C,0.100000*%
%ADD11R,0.675000X0.250000*%
%ADD12R,0.250000X0.675000*%
%ADD13R,0.700000X0.700000*%
G04 APERTURE END LIST*
D10*
G36*
X2976958Y-1280710D02*
G01*
X2991276Y-1282834D01*
X3005317Y-1286351D01*
X3018946Y-1291228D01*
X3032031Y-1297417D01*
X3044447Y-1304858D01*
X3056073Y-1313481D01*
X3066798Y-1323202D01*
X3076519Y-1333927D01*
X3085142Y-1345553D01*
X3092583Y-1357969D01*
X3098772Y-1371054D01*
X3103649Y-1384683D01*
X3107166Y-1398724D01*
X3109290Y-1413042D01*
X3110000Y-1427500D01*
X3110000Y-1772500D01*
X3109290Y-1786958D01*
X3107166Y-1801276D01*
X3103649Y-1815317D01*
X3098772Y-1828946D01*
X3092583Y-1842031D01*
X3085142Y-1854447D01*
X3076519Y-1866073D01*
X3066798Y-1876798D01*
X3056073Y-1886519D01*
X3044447Y-1895142D01*
X3032031Y-1902583D01*
X3018946Y-1908772D01*
X3005317Y-1913649D01*
X2991276Y-1917166D01*
X2976958Y-1919290D01*
X2962500Y-1920000D01*
X2667500Y-1920000D01*
X2653042Y-1919290D01*
X2638724Y-1917166D01*
X2624683Y-1913649D01*
X2611054Y-1908772D01*
X2597969Y-1902583D01*
X2585553Y-1895142D01*
X2573927Y-1886519D01*
X2563202Y-1876798D01*
X2553481Y-1866073D01*
X2544858Y-1854447D01*
X2537417Y-1842031D01*
X2531228Y-1828946D01*
X2526351Y-1815317D01*
X2522834Y-1801276D01*
X2520710Y-1786958D01*
X2520000Y-1772500D01*
X2520000Y-1427500D01*
X2520710Y-1413042D01*
X2522834Y-1398724D01*
X2526351Y-1384683D01*
X2531228Y-1371054D01*
X2537417Y-1357969D01*
X2544858Y-1345553D01*
X2553481Y-1333927D01*
X2563202Y-1323202D01*
X2573927Y-1313481D01*
X2585553Y-1304858D01*
X2597969Y-1297417D01*
X2611054Y-1291228D01*
X2624683Y-1286351D01*
X2638724Y-1282834D01*
X2653042Y-1280710D01*
X2667500Y-1280000D01*
X2962500Y-1280000D01*
X2976958Y-1280710D01*
G37*
G36*
X3946958Y-1280710D02*
G01*
X3961276Y-1282834D01*
X3975317Y-1286351D01*
X3988946Y-1291228D01*
X4002031Y-1297417D01*
X4014447Y-1304858D01*
X4026073Y-1313481D01*
X4036798Y-1323202D01*
X4046519Y-1333927D01*
X4055142Y-1345553D01*
X4062583Y-1357969D01*
X4068772Y-1371054D01*
X4073649Y-1384683D01*
X4077166Y-1398724D01*
X4079290Y-1413042D01*
X4080000Y-1427500D01*
X4080000Y-1772500D01*
X4079290Y-1786958D01*
X4077166Y-1801276D01*
X4073649Y-1815317D01*
X4068772Y-1828946D01*
X4062583Y-1842031D01*
X4055142Y-1854447D01*
X4046519Y-1866073D01*
X4036798Y-1876798D01*
X4026073Y-1886519D01*
X4014447Y-1895142D01*
X4002031Y-1902583D01*
X3988946Y-1908772D01*
X3975317Y-1913649D01*
X3961276Y-1917166D01*
X3946958Y-1919290D01*
X3932500Y-1920000D01*
X3637500Y-1920000D01*
X3623042Y-1919290D01*
X3608724Y-1917166D01*
X3594683Y-1913649D01*
X3581054Y-1908772D01*
X3567969Y-1902583D01*
X3555553Y-1895142D01*
X3543927Y-1886519D01*
X3533202Y-1876798D01*
X3523481Y-1866073D01*
X3514858Y-1854447D01*
X3507417Y-1842031D01*
X3501228Y-1828946D01*
X3496351Y-1815317D01*
X3492834Y-1801276D01*
X3490710Y-1786958D01*
X3490000Y-1772500D01*
X3490000Y-1427500D01*
X3490710Y-1413042D01*
X3492834Y-1398724D01*
X3496351Y-1384683D01*
X3501228Y-1371054D01*
X3507417Y-1357969D01*
X3514858Y-1345553D01*
X3523481Y-1333927D01*
X3533202Y-1323202D01*
X3543927Y-1313481D01*
X3555553Y-1304858D01*
X3567969Y-1297417D01*
X3581054Y-1291228D01*
X3594683Y-1286351D01*
X3608724Y-1282834D01*
X3623042Y-1280710D01*
X3637500Y-1280000D01*
X3932500Y-1280000D01*
X3946958Y-1280710D01*
G37*
G36*
X-6671042Y80790D02*
G01*
X-6656724Y78666D01*
X-6642683Y75149D01*
X-6629054Y70272D01*
X-6615969Y64083D01*
X-6603553Y56642D01*
X-6591927Y48019D01*
X-6581202Y38298D01*
X-6571481Y27573D01*
X-6562858Y15947D01*
X-6555417Y3531D01*
X-6549228Y-9554D01*
X-6544351Y-23183D01*
X-6540834Y-37224D01*
X-6538710Y-51542D01*
X-6538000Y-66000D01*
X-6538000Y-361000D01*
X-6538710Y-375458D01*
X-6540834Y-389776D01*
X-6544351Y-403817D01*
X-6549228Y-417446D01*
X-6555417Y-430531D01*
X-6562858Y-442947D01*
X-6571481Y-454573D01*
X-6581202Y-465298D01*
X-6591927Y-475019D01*
X-6603553Y-483642D01*
X-6615969Y-491083D01*
X-6629054Y-497272D01*
X-6642683Y-502149D01*
X-6656724Y-505666D01*
X-6671042Y-507790D01*
X-6685500Y-508500D01*
X-7030500Y-508500D01*
X-7044958Y-507790D01*
X-7059276Y-505666D01*
X-7073317Y-502149D01*
X-7086946Y-497272D01*
X-7100031Y-491083D01*
X-7112447Y-483642D01*
X-7124073Y-475019D01*
X-7134798Y-465298D01*
X-7144519Y-454573D01*
X-7153142Y-442947D01*
X-7160583Y-430531D01*
X-7166772Y-417446D01*
X-7171649Y-403817D01*
X-7175166Y-389776D01*
X-7177290Y-375458D01*
X-7178000Y-361000D01*
X-7178000Y-66000D01*
X-7177290Y-51542D01*
X-7175166Y-37224D01*
X-7171649Y-23183D01*
X-7166772Y-9554D01*
X-7160583Y3531D01*
X-7153142Y15947D01*
X-7144519Y27573D01*
X-7134798Y38298D01*
X-7124073Y48019D01*
X-7112447Y56642D01*
X-7100031Y64083D01*
X-7086946Y70272D01*
X-7073317Y75149D01*
X-7059276Y78666D01*
X-7044958Y80790D01*
X-7030500Y81500D01*
X-6685500Y81500D01*
X-6671042Y80790D01*
G37*
G36*
X-6671042Y-889210D02*
G01*
X-6656724Y-891334D01*
X-6642683Y-894851D01*
X-6629054Y-899728D01*
X-6615969Y-905917D01*
X-6603553Y-913358D01*
X-6591927Y-921981D01*
X-6581202Y-931702D01*
X-6571481Y-942427D01*
X-6562858Y-954053D01*
X-6555417Y-966469D01*
X-6549228Y-979554D01*
X-6544351Y-993183D01*
X-6540834Y-1007224D01*
X-6538710Y-1021542D01*
X-6538000Y-1036000D01*
X-6538000Y-1331000D01*
X-6538710Y-1345458D01*
X-6540834Y-1359776D01*
X-6544351Y-1373817D01*
X-6549228Y-1387446D01*
X-6555417Y-1400531D01*
X-6562858Y-1412947D01*
X-6571481Y-1424573D01*
X-6581202Y-1435298D01*
X-6591927Y-1445019D01*
X-6603553Y-1453642D01*
X-6615969Y-1461083D01*
X-6629054Y-1467272D01*
X-6642683Y-1472149D01*
X-6656724Y-1475666D01*
X-6671042Y-1477790D01*
X-6685500Y-1478500D01*
X-7030500Y-1478500D01*
X-7044958Y-1477790D01*
X-7059276Y-1475666D01*
X-7073317Y-1472149D01*
X-7086946Y-1467272D01*
X-7100031Y-1461083D01*
X-7112447Y-1453642D01*
X-7124073Y-1445019D01*
X-7134798Y-1435298D01*
X-7144519Y-1424573D01*
X-7153142Y-1412947D01*
X-7160583Y-1400531D01*
X-7166772Y-1387446D01*
X-7171649Y-1373817D01*
X-7175166Y-1359776D01*
X-7177290Y-1345458D01*
X-7178000Y-1331000D01*
X-7178000Y-1036000D01*
X-7177290Y-1021542D01*
X-7175166Y-1007224D01*
X-7171649Y-993183D01*
X-7166772Y-979554D01*
X-7160583Y-966469D01*
X-7153142Y-954053D01*
X-7144519Y-942427D01*
X-7134798Y-931702D01*
X-7124073Y-921981D01*
X-7112447Y-913358D01*
X-7100031Y-905917D01*
X-7086946Y-899728D01*
X-7073317Y-894851D01*
X-7059276Y-891334D01*
X-7044958Y-889210D01*
X-7030500Y-888500D01*
X-6685500Y-888500D01*
X-6671042Y-889210D01*
G37*
G36*
X-2861042Y-370710D02*
G01*
X-2846724Y-372834D01*
X-2832683Y-376351D01*
X-2819054Y-381228D01*
X-2805969Y-387417D01*
X-2793553Y-394858D01*
X-2781927Y-403481D01*
X-2771202Y-413202D01*
X-2761481Y-423927D01*
X-2752858Y-435553D01*
X-2745417Y-447969D01*
X-2739228Y-461054D01*
X-2734351Y-474683D01*
X-2730834Y-488724D01*
X-2728710Y-503042D01*
X-2728000Y-517500D01*
X-2728000Y-812500D01*
X-2728710Y-826958D01*
X-2730834Y-841276D01*
X-2734351Y-855317D01*
X-2739228Y-868946D01*
X-2745417Y-882031D01*
X-2752858Y-894447D01*
X-2761481Y-906073D01*
X-2771202Y-916798D01*
X-2781927Y-926519D01*
X-2793553Y-935142D01*
X-2805969Y-942583D01*
X-2819054Y-948772D01*
X-2832683Y-953649D01*
X-2846724Y-957166D01*
X-2861042Y-959290D01*
X-2875500Y-960000D01*
X-3220500Y-960000D01*
X-3234958Y-959290D01*
X-3249276Y-957166D01*
X-3263317Y-953649D01*
X-3276946Y-948772D01*
X-3290031Y-942583D01*
X-3302447Y-935142D01*
X-3314073Y-926519D01*
X-3324798Y-916798D01*
X-3334519Y-906073D01*
X-3343142Y-894447D01*
X-3350583Y-882031D01*
X-3356772Y-868946D01*
X-3361649Y-855317D01*
X-3365166Y-841276D01*
X-3367290Y-826958D01*
X-3368000Y-812500D01*
X-3368000Y-517500D01*
X-3367290Y-503042D01*
X-3365166Y-488724D01*
X-3361649Y-474683D01*
X-3356772Y-461054D01*
X-3350583Y-447969D01*
X-3343142Y-435553D01*
X-3334519Y-423927D01*
X-3324798Y-413202D01*
X-3314073Y-403481D01*
X-3302447Y-394858D01*
X-3290031Y-387417D01*
X-3276946Y-381228D01*
X-3263317Y-376351D01*
X-3249276Y-372834D01*
X-3234958Y-370710D01*
X-3220500Y-370000D01*
X-2875500Y-370000D01*
X-2861042Y-370710D01*
G37*
G36*
X-2861042Y-1340710D02*
G01*
X-2846724Y-1342834D01*
X-2832683Y-1346351D01*
X-2819054Y-1351228D01*
X-2805969Y-1357417D01*
X-2793553Y-1364858D01*
X-2781927Y-1373481D01*
X-2771202Y-1383202D01*
X-2761481Y-1393927D01*
X-2752858Y-1405553D01*
X-2745417Y-1417969D01*
X-2739228Y-1431054D01*
X-2734351Y-1444683D01*
X-2730834Y-1458724D01*
X-2728710Y-1473042D01*
X-2728000Y-1487500D01*
X-2728000Y-1782500D01*
X-2728710Y-1796958D01*
X-2730834Y-1811276D01*
X-2734351Y-1825317D01*
X-2739228Y-1838946D01*
X-2745417Y-1852031D01*
X-2752858Y-1864447D01*
X-2761481Y-1876073D01*
X-2771202Y-1886798D01*
X-2781927Y-1896519D01*
X-2793553Y-1905142D01*
X-2805969Y-1912583D01*
X-2819054Y-1918772D01*
X-2832683Y-1923649D01*
X-2846724Y-1927166D01*
X-2861042Y-1929290D01*
X-2875500Y-1930000D01*
X-3220500Y-1930000D01*
X-3234958Y-1929290D01*
X-3249276Y-1927166D01*
X-3263317Y-1923649D01*
X-3276946Y-1918772D01*
X-3290031Y-1912583D01*
X-3302447Y-1905142D01*
X-3314073Y-1896519D01*
X-3324798Y-1886798D01*
X-3334519Y-1876073D01*
X-3343142Y-1864447D01*
X-3350583Y-1852031D01*
X-3356772Y-1838946D01*
X-3361649Y-1825317D01*
X-3365166Y-1811276D01*
X-3367290Y-1796958D01*
X-3368000Y-1782500D01*
X-3368000Y-1487500D01*
X-3367290Y-1473042D01*
X-3365166Y-1458724D01*
X-3361649Y-1444683D01*
X-3356772Y-1431054D01*
X-3350583Y-1417969D01*
X-3343142Y-1405553D01*
X-3334519Y-1393927D01*
X-3324798Y-1383202D01*
X-3314073Y-1373481D01*
X-3302447Y-1364858D01*
X-3290031Y-1357417D01*
X-3276946Y-1351228D01*
X-3263317Y-1346351D01*
X-3249276Y-1342834D01*
X-3234958Y-1340710D01*
X-3220500Y-1340000D01*
X-2875500Y-1340000D01*
X-2861042Y-1340710D01*
G37*
G36*
X1068626Y-1500301D02*
G01*
X1074693Y-1501201D01*
X1080643Y-1502691D01*
X1086418Y-1504758D01*
X1091962Y-1507380D01*
X1097223Y-1510533D01*
X1102150Y-1514187D01*
X1106694Y-1518306D01*
X1110813Y-1522850D01*
X1114467Y-1527777D01*
X1117620Y-1533038D01*
X1120242Y-1538582D01*
X1122309Y-1544357D01*
X1123799Y-1550307D01*
X1124699Y-1556374D01*
X1125000Y-1562500D01*
X1125000Y-2287500D01*
X1124699Y-2293626D01*
X1123799Y-2299693D01*
X1122309Y-2305643D01*
X1120242Y-2311418D01*
X1117620Y-2316962D01*
X1114467Y-2322223D01*
X1110813Y-2327150D01*
X1106694Y-2331694D01*
X1102150Y-2335813D01*
X1097223Y-2339467D01*
X1091962Y-2342620D01*
X1086418Y-2345242D01*
X1080643Y-2347309D01*
X1074693Y-2348799D01*
X1068626Y-2349699D01*
X1062500Y-2350000D01*
X937500Y-2350000D01*
X931374Y-2349699D01*
X925307Y-2348799D01*
X919357Y-2347309D01*
X913582Y-2345242D01*
X908038Y-2342620D01*
X902777Y-2339467D01*
X897850Y-2335813D01*
X893306Y-2331694D01*
X889187Y-2327150D01*
X885533Y-2322223D01*
X882380Y-2316962D01*
X879758Y-2311418D01*
X877691Y-2305643D01*
X876201Y-2299693D01*
X875301Y-2293626D01*
X875000Y-2287500D01*
X875000Y-1562500D01*
X875301Y-1556374D01*
X876201Y-1550307D01*
X877691Y-1544357D01*
X879758Y-1538582D01*
X882380Y-1533038D01*
X885533Y-1527777D01*
X889187Y-1522850D01*
X893306Y-1518306D01*
X897850Y-1514187D01*
X902777Y-1510533D01*
X908038Y-1507380D01*
X913582Y-1504758D01*
X919357Y-1502691D01*
X925307Y-1501201D01*
X931374Y-1500301D01*
X937500Y-1500000D01*
X1062500Y-1500000D01*
X1068626Y-1500301D01*
G37*
G36*
X568626Y-1500301D02*
G01*
X574693Y-1501201D01*
X580643Y-1502691D01*
X586418Y-1504758D01*
X591962Y-1507380D01*
X597223Y-1510533D01*
X602150Y-1514187D01*
X606694Y-1518306D01*
X610813Y-1522850D01*
X614467Y-1527777D01*
X617620Y-1533038D01*
X620242Y-1538582D01*
X622309Y-1544357D01*
X623799Y-1550307D01*
X624699Y-1556374D01*
X625000Y-1562500D01*
X625000Y-2287500D01*
X624699Y-2293626D01*
X623799Y-2299693D01*
X622309Y-2305643D01*
X620242Y-2311418D01*
X617620Y-2316962D01*
X614467Y-2322223D01*
X610813Y-2327150D01*
X606694Y-2331694D01*
X602150Y-2335813D01*
X597223Y-2339467D01*
X591962Y-2342620D01*
X586418Y-2345242D01*
X580643Y-2347309D01*
X574693Y-2348799D01*
X568626Y-2349699D01*
X562500Y-2350000D01*
X437500Y-2350000D01*
X431374Y-2349699D01*
X425307Y-2348799D01*
X419357Y-2347309D01*
X413582Y-2345242D01*
X408038Y-2342620D01*
X402777Y-2339467D01*
X397850Y-2335813D01*
X393306Y-2331694D01*
X389187Y-2327150D01*
X385533Y-2322223D01*
X382380Y-2316962D01*
X379758Y-2311418D01*
X377691Y-2305643D01*
X376201Y-2299693D01*
X375301Y-2293626D01*
X375000Y-2287500D01*
X375000Y-1562500D01*
X375301Y-1556374D01*
X376201Y-1550307D01*
X377691Y-1544357D01*
X379758Y-1538582D01*
X382380Y-1533038D01*
X385533Y-1527777D01*
X389187Y-1522850D01*
X393306Y-1518306D01*
X397850Y-1514187D01*
X402777Y-1510533D01*
X408038Y-1507380D01*
X413582Y-1504758D01*
X419357Y-1502691D01*
X425307Y-1501201D01*
X431374Y-1500301D01*
X437500Y-1500000D01*
X562500Y-1500000D01*
X568626Y-1500301D01*
G37*
G36*
X68626Y-1500301D02*
G01*
X74693Y-1501201D01*
X80643Y-1502691D01*
X86418Y-1504758D01*
X91962Y-1507380D01*
X97223Y-1510533D01*
X102150Y-1514187D01*
X106694Y-1518306D01*
X110813Y-1522850D01*
X114467Y-1527777D01*
X117620Y-1533038D01*
X120242Y-1538582D01*
X122309Y-1544357D01*
X123799Y-1550307D01*
X124699Y-1556374D01*
X125000Y-1562500D01*
X125000Y-2287500D01*
X124699Y-2293626D01*
X123799Y-2299693D01*
X122309Y-2305643D01*
X120242Y-2311418D01*
X117620Y-2316962D01*
X114467Y-2322223D01*
X110813Y-2327150D01*
X106694Y-2331694D01*
X102150Y-2335813D01*
X97223Y-2339467D01*
X91962Y-2342620D01*
X86418Y-2345242D01*
X80643Y-2347309D01*
X74693Y-2348799D01*
X68626Y-2349699D01*
X62500Y-2350000D01*
X-62500Y-2350000D01*
X-68626Y-2349699D01*
X-74693Y-2348799D01*
X-80643Y-2347309D01*
X-86418Y-2345242D01*
X-91962Y-2342620D01*
X-97223Y-2339467D01*
X-102150Y-2335813D01*
X-106694Y-2331694D01*
X-110813Y-2327150D01*
X-114467Y-2322223D01*
X-117620Y-2316962D01*
X-120242Y-2311418D01*
X-122309Y-2305643D01*
X-123799Y-2299693D01*
X-124699Y-2293626D01*
X-125000Y-2287500D01*
X-125000Y-1562500D01*
X-124699Y-1556374D01*
X-123799Y-1550307D01*
X-122309Y-1544357D01*
X-120242Y-1538582D01*
X-117620Y-1533038D01*
X-114467Y-1527777D01*
X-110813Y-1522850D01*
X-106694Y-1518306D01*
X-102150Y-1514187D01*
X-97223Y-1510533D01*
X-91962Y-1507380D01*
X-86418Y-1504758D01*
X-80643Y-1502691D01*
X-74693Y-1501201D01*
X-68626Y-1500301D01*
X-62500Y-1500000D01*
X62500Y-1500000D01*
X68626Y-1500301D01*
G37*
G36*
X-431374Y-1500301D02*
G01*
X-425307Y-1501201D01*
X-419357Y-1502691D01*
X-413582Y-1504758D01*
X-408038Y-1507380D01*
X-402777Y-1510533D01*
X-397850Y-1514187D01*
X-393306Y-1518306D01*
X-389187Y-1522850D01*
X-385533Y-1527777D01*
X-382380Y-1533038D01*
X-379758Y-1538582D01*
X-377691Y-1544357D01*
X-376201Y-1550307D01*
X-375301Y-1556374D01*
X-375000Y-1562500D01*
X-375000Y-2287500D01*
X-375301Y-2293626D01*
X-376201Y-2299693D01*
X-377691Y-2305643D01*
X-379758Y-2311418D01*
X-382380Y-2316962D01*
X-385533Y-2322223D01*
X-389187Y-2327150D01*
X-393306Y-2331694D01*
X-397850Y-2335813D01*
X-402777Y-2339467D01*
X-408038Y-2342620D01*
X-413582Y-2345242D01*
X-419357Y-2347309D01*
X-425307Y-2348799D01*
X-431374Y-2349699D01*
X-437500Y-2350000D01*
X-562500Y-2350000D01*
X-568626Y-2349699D01*
X-574693Y-2348799D01*
X-580643Y-2347309D01*
X-586418Y-2345242D01*
X-591962Y-2342620D01*
X-597223Y-2339467D01*
X-602150Y-2335813D01*
X-606694Y-2331694D01*
X-610813Y-2327150D01*
X-614467Y-2322223D01*
X-617620Y-2316962D01*
X-620242Y-2311418D01*
X-622309Y-2305643D01*
X-623799Y-2299693D01*
X-624699Y-2293626D01*
X-625000Y-2287500D01*
X-625000Y-1562500D01*
X-624699Y-1556374D01*
X-623799Y-1550307D01*
X-622309Y-1544357D01*
X-620242Y-1538582D01*
X-617620Y-1533038D01*
X-614467Y-1527777D01*
X-610813Y-1522850D01*
X-606694Y-1518306D01*
X-602150Y-1514187D01*
X-597223Y-1510533D01*
X-591962Y-1507380D01*
X-586418Y-1504758D01*
X-580643Y-1502691D01*
X-574693Y-1501201D01*
X-568626Y-1500301D01*
X-562500Y-1500000D01*
X-437500Y-1500000D01*
X-431374Y-1500301D01*
G37*
G36*
X-931374Y-1500301D02*
G01*
X-925307Y-1501201D01*
X-919357Y-1502691D01*
X-913582Y-1504758D01*
X-908038Y-1507380D01*
X-902777Y-1510533D01*
X-897850Y-1514187D01*
X-893306Y-1518306D01*
X-889187Y-1522850D01*
X-885533Y-1527777D01*
X-882380Y-1533038D01*
X-879758Y-1538582D01*
X-877691Y-1544357D01*
X-876201Y-1550307D01*
X-875301Y-1556374D01*
X-875000Y-1562500D01*
X-875000Y-2287500D01*
X-875301Y-2293626D01*
X-876201Y-2299693D01*
X-877691Y-2305643D01*
X-879758Y-2311418D01*
X-882380Y-2316962D01*
X-885533Y-2322223D01*
X-889187Y-2327150D01*
X-893306Y-2331694D01*
X-897850Y-2335813D01*
X-902777Y-2339467D01*
X-908038Y-2342620D01*
X-913582Y-2345242D01*
X-919357Y-2347309D01*
X-925307Y-2348799D01*
X-931374Y-2349699D01*
X-937500Y-2350000D01*
X-1062500Y-2350000D01*
X-1068626Y-2349699D01*
X-1074693Y-2348799D01*
X-1080643Y-2347309D01*
X-1086418Y-2345242D01*
X-1091962Y-2342620D01*
X-1097223Y-2339467D01*
X-1102150Y-2335813D01*
X-1106694Y-2331694D01*
X-1110813Y-2327150D01*
X-1114467Y-2322223D01*
X-1117620Y-2316962D01*
X-1120242Y-2311418D01*
X-1122309Y-2305643D01*
X-1123799Y-2299693D01*
X-1124699Y-2293626D01*
X-1125000Y-2287500D01*
X-1125000Y-1562500D01*
X-1124699Y-1556374D01*
X-1123799Y-1550307D01*
X-1122309Y-1544357D01*
X-1120242Y-1538582D01*
X-1117620Y-1533038D01*
X-1114467Y-1527777D01*
X-1110813Y-1522850D01*
X-1106694Y-1518306D01*
X-1102150Y-1514187D01*
X-1097223Y-1510533D01*
X-1091962Y-1507380D01*
X-1086418Y-1504758D01*
X-1080643Y-1502691D01*
X-1074693Y-1501201D01*
X-1068626Y-1500301D01*
X-1062500Y-1500000D01*
X-937500Y-1500000D01*
X-931374Y-1500301D01*
G37*
G36*
X-1556374Y-875301D02*
G01*
X-1550307Y-876201D01*
X-1544357Y-877691D01*
X-1538582Y-879758D01*
X-1533038Y-882380D01*
X-1527777Y-885533D01*
X-1522850Y-889187D01*
X-1518306Y-893306D01*
X-1514187Y-897850D01*
X-1510533Y-902777D01*
X-1507380Y-908038D01*
X-1504758Y-913582D01*
X-1502691Y-919357D01*
X-1501201Y-925307D01*
X-1500301Y-931374D01*
X-1500000Y-937500D01*
X-1500000Y-1062500D01*
X-1500301Y-1068626D01*
X-1501201Y-1074693D01*
X-1502691Y-1080643D01*
X-1504758Y-1086418D01*
X-1507380Y-1091962D01*
X-1510533Y-1097223D01*
X-1514187Y-1102150D01*
X-1518306Y-1106694D01*
X-1522850Y-1110813D01*
X-1527777Y-1114467D01*
X-1533038Y-1117620D01*
X-1538582Y-1120242D01*
X-1544357Y-1122309D01*
X-1550307Y-1123799D01*
X-1556374Y-1124699D01*
X-1562500Y-1125000D01*
X-2287500Y-1125000D01*
X-2293626Y-1124699D01*
X-2299693Y-1123799D01*
X-2305643Y-1122309D01*
X-2311418Y-1120242D01*
X-2316962Y-1117620D01*
X-2322223Y-1114467D01*
X-2327150Y-1110813D01*
X-2331694Y-1106694D01*
X-2335813Y-1102150D01*
X-2339467Y-1097223D01*
X-2342620Y-1091962D01*
X-2345242Y-1086418D01*
X-2347309Y-1080643D01*
X-2348799Y-1074693D01*
X-2349699Y-1068626D01*
X-2350000Y-1062500D01*
X-2350000Y-937500D01*
X-2349699Y-931374D01*
X-2348799Y-925307D01*
X-2347309Y-919357D01*
X-2345242Y-913582D01*
X-2342620Y-908038D01*
X-2339467Y-902777D01*
X-2335813Y-897850D01*
X-2331694Y-893306D01*
X-2327150Y-889187D01*
X-2322223Y-885533D01*
X-2316962Y-882380D01*
X-2311418Y-879758D01*
X-2305643Y-877691D01*
X-2299693Y-876201D01*
X-2293626Y-875301D01*
X-2287500Y-875000D01*
X-1562500Y-875000D01*
X-1556374Y-875301D01*
G37*
G36*
X-1556374Y-375301D02*
G01*
X-1550307Y-376201D01*
X-1544357Y-377691D01*
X-1538582Y-379758D01*
X-1533038Y-382380D01*
X-1527777Y-385533D01*
X-1522850Y-389187D01*
X-1518306Y-393306D01*
X-1514187Y-397850D01*
X-1510533Y-402777D01*
X-1507380Y-408038D01*
X-1504758Y-413582D01*
X-1502691Y-419357D01*
X-1501201Y-425307D01*
X-1500301Y-431374D01*
X-1500000Y-437500D01*
X-1500000Y-562500D01*
X-1500301Y-568626D01*
X-1501201Y-574693D01*
X-1502691Y-580643D01*
X-1504758Y-586418D01*
X-1507380Y-591962D01*
X-1510533Y-597223D01*
X-1514187Y-602150D01*
X-1518306Y-606694D01*
X-1522850Y-610813D01*
X-1527777Y-614467D01*
X-1533038Y-617620D01*
X-1538582Y-620242D01*
X-1544357Y-622309D01*
X-1550307Y-623799D01*
X-1556374Y-624699D01*
X-1562500Y-625000D01*
X-2287500Y-625000D01*
X-2293626Y-624699D01*
X-2299693Y-623799D01*
X-2305643Y-622309D01*
X-2311418Y-620242D01*
X-2316962Y-617620D01*
X-2322223Y-614467D01*
X-2327150Y-610813D01*
X-2331694Y-606694D01*
X-2335813Y-602150D01*
X-2339467Y-597223D01*
X-2342620Y-591962D01*
X-2345242Y-586418D01*
X-2347309Y-580643D01*
X-2348799Y-574693D01*
X-2349699Y-568626D01*
X-2350000Y-562500D01*
X-2350000Y-437500D01*
X-2349699Y-431374D01*
X-2348799Y-425307D01*
X-2347309Y-419357D01*
X-2345242Y-413582D01*
X-2342620Y-408038D01*
X-2339467Y-402777D01*
X-2335813Y-397850D01*
X-2331694Y-393306D01*
X-2327150Y-389187D01*
X-2322223Y-385533D01*
X-2316962Y-382380D01*
X-2311418Y-379758D01*
X-2305643Y-377691D01*
X-2299693Y-376201D01*
X-2293626Y-375301D01*
X-2287500Y-375000D01*
X-1562500Y-375000D01*
X-1556374Y-375301D01*
G37*
G36*
X-1556374Y124699D02*
G01*
X-1550307Y123799D01*
X-1544357Y122309D01*
X-1538582Y120242D01*
X-1533038Y117620D01*
X-1527777Y114467D01*
X-1522850Y110813D01*
X-1518306Y106694D01*
X-1514187Y102150D01*
X-1510533Y97223D01*
X-1507380Y91962D01*
X-1504758Y86418D01*
X-1502691Y80643D01*
X-1501201Y74693D01*
X-1500301Y68626D01*
X-1500000Y62500D01*
X-1500000Y-62500D01*
X-1500301Y-68626D01*
X-1501201Y-74693D01*
X-1502691Y-80643D01*
X-1504758Y-86418D01*
X-1507380Y-91962D01*
X-1510533Y-97223D01*
X-1514187Y-102150D01*
X-1518306Y-106694D01*
X-1522850Y-110813D01*
X-1527777Y-114467D01*
X-1533038Y-117620D01*
X-1538582Y-120242D01*
X-1544357Y-122309D01*
X-1550307Y-123799D01*
X-1556374Y-124699D01*
X-1562500Y-125000D01*
X-2287500Y-125000D01*
X-2293626Y-124699D01*
X-2299693Y-123799D01*
X-2305643Y-122309D01*
X-2311418Y-120242D01*
X-2316962Y-117620D01*
X-2322223Y-114467D01*
X-2327150Y-110813D01*
X-2331694Y-106694D01*
X-2335813Y-102150D01*
X-2339467Y-97223D01*
X-2342620Y-91962D01*
X-2345242Y-86418D01*
X-2347309Y-80643D01*
X-2348799Y-74693D01*
X-2349699Y-68626D01*
X-2350000Y-62500D01*
X-2350000Y62500D01*
X-2349699Y68626D01*
X-2348799Y74693D01*
X-2347309Y80643D01*
X-2345242Y86418D01*
X-2342620Y91962D01*
X-2339467Y97223D01*
X-2335813Y102150D01*
X-2331694Y106694D01*
X-2327150Y110813D01*
X-2322223Y114467D01*
X-2316962Y117620D01*
X-2311418Y120242D01*
X-2305643Y122309D01*
X-2299693Y123799D01*
X-2293626Y124699D01*
X-2287500Y125000D01*
X-1562500Y125000D01*
X-1556374Y124699D01*
G37*
G36*
X-1556374Y624699D02*
G01*
X-1550307Y623799D01*
X-1544357Y622309D01*
X-1538582Y620242D01*
X-1533038Y617620D01*
X-1527777Y614467D01*
X-1522850Y610813D01*
X-1518306Y606694D01*
X-1514187Y602150D01*
X-1510533Y597223D01*
X-1507380Y591962D01*
X-1504758Y586418D01*
X-1502691Y580643D01*
X-1501201Y574693D01*
X-1500301Y568626D01*
X-1500000Y562500D01*
X-1500000Y437500D01*
X-1500301Y431374D01*
X-1501201Y425307D01*
X-1502691Y419357D01*
X-1504758Y413582D01*
X-1507380Y408038D01*
X-1510533Y402777D01*
X-1514187Y397850D01*
X-1518306Y393306D01*
X-1522850Y389187D01*
X-1527777Y385533D01*
X-1533038Y382380D01*
X-1538582Y379758D01*
X-1544357Y377691D01*
X-1550307Y376201D01*
X-1556374Y375301D01*
X-1562500Y375000D01*
X-2287500Y375000D01*
X-2293626Y375301D01*
X-2299693Y376201D01*
X-2305643Y377691D01*
X-2311418Y379758D01*
X-2316962Y382380D01*
X-2322223Y385533D01*
X-2327150Y389187D01*
X-2331694Y393306D01*
X-2335813Y397850D01*
X-2339467Y402777D01*
X-2342620Y408038D01*
X-2345242Y413582D01*
X-2347309Y419357D01*
X-2348799Y425307D01*
X-2349699Y431374D01*
X-2350000Y437500D01*
X-2350000Y562500D01*
X-2349699Y568626D01*
X-2348799Y574693D01*
X-2347309Y580643D01*
X-2345242Y586418D01*
X-2342620Y591962D01*
X-2339467Y597223D01*
X-2335813Y602150D01*
X-2331694Y606694D01*
X-2327150Y610813D01*
X-2322223Y614467D01*
X-2316962Y617620D01*
X-2311418Y620242D01*
X-2305643Y622309D01*
X-2299693Y623799D01*
X-2293626Y624699D01*
X-2287500Y625000D01*
X-1562500Y625000D01*
X-1556374Y624699D01*
G37*
G36*
X-1556374Y1124699D02*
G01*
X-1550307Y1123799D01*
X-1544357Y1122309D01*
X-1538582Y1120242D01*
X-1533038Y1117620D01*
X-1527777Y1114467D01*
X-1522850Y1110813D01*
X-1518306Y1106694D01*
X-1514187Y1102150D01*
X-1510533Y1097223D01*
X-1507380Y1091962D01*
X-1504758Y1086418D01*
X-1502691Y1080643D01*
X-1501201Y1074693D01*
X-1500301Y1068626D01*
X-1500000Y1062500D01*
X-1500000Y937500D01*
X-1500301Y931374D01*
X-1501201Y925307D01*
X-1502691Y919357D01*
X-1504758Y913582D01*
X-1507380Y908038D01*
X-1510533Y902777D01*
X-1514187Y897850D01*
X-1518306Y893306D01*
X-1522850Y889187D01*
X-1527777Y885533D01*
X-1533038Y882380D01*
X-1538582Y879758D01*
X-1544357Y877691D01*
X-1550307Y876201D01*
X-1556374Y875301D01*
X-1562500Y875000D01*
X-2287500Y875000D01*
X-2293626Y875301D01*
X-2299693Y876201D01*
X-2305643Y877691D01*
X-2311418Y879758D01*
X-2316962Y882380D01*
X-2322223Y885533D01*
X-2327150Y889187D01*
X-2331694Y893306D01*
X-2335813Y897850D01*
X-2339467Y902777D01*
X-2342620Y908038D01*
X-2345242Y913582D01*
X-2347309Y919357D01*
X-2348799Y925307D01*
X-2349699Y931374D01*
X-2350000Y937500D01*
X-2350000Y1062500D01*
X-2349699Y1068626D01*
X-2348799Y1074693D01*
X-2347309Y1080643D01*
X-2345242Y1086418D01*
X-2342620Y1091962D01*
X-2339467Y1097223D01*
X-2335813Y1102150D01*
X-2331694Y1106694D01*
X-2327150Y1110813D01*
X-2322223Y1114467D01*
X-2316962Y1117620D01*
X-2311418Y1120242D01*
X-2305643Y1122309D01*
X-2299693Y1123799D01*
X-2293626Y1124699D01*
X-2287500Y1125000D01*
X-1562500Y1125000D01*
X-1556374Y1124699D01*
G37*
G36*
X-931374Y2349699D02*
G01*
X-925307Y2348799D01*
X-919357Y2347309D01*
X-913582Y2345242D01*
X-908038Y2342620D01*
X-902777Y2339467D01*
X-897850Y2335813D01*
X-893306Y2331694D01*
X-889187Y2327150D01*
X-885533Y2322223D01*
X-882380Y2316962D01*
X-879758Y2311418D01*
X-877691Y2305643D01*
X-876201Y2299693D01*
X-875301Y2293626D01*
X-875000Y2287500D01*
X-875000Y1562500D01*
X-875301Y1556374D01*
X-876201Y1550307D01*
X-877691Y1544357D01*
X-879758Y1538582D01*
X-882380Y1533038D01*
X-885533Y1527777D01*
X-889187Y1522850D01*
X-893306Y1518306D01*
X-897850Y1514187D01*
X-902777Y1510533D01*
X-908038Y1507380D01*
X-913582Y1504758D01*
X-919357Y1502691D01*
X-925307Y1501201D01*
X-931374Y1500301D01*
X-937500Y1500000D01*
X-1062500Y1500000D01*
X-1068626Y1500301D01*
X-1074693Y1501201D01*
X-1080643Y1502691D01*
X-1086418Y1504758D01*
X-1091962Y1507380D01*
X-1097223Y1510533D01*
X-1102150Y1514187D01*
X-1106694Y1518306D01*
X-1110813Y1522850D01*
X-1114467Y1527777D01*
X-1117620Y1533038D01*
X-1120242Y1538582D01*
X-1122309Y1544357D01*
X-1123799Y1550307D01*
X-1124699Y1556374D01*
X-1125000Y1562500D01*
X-1125000Y2287500D01*
X-1124699Y2293626D01*
X-1123799Y2299693D01*
X-1122309Y2305643D01*
X-1120242Y2311418D01*
X-1117620Y2316962D01*
X-1114467Y2322223D01*
X-1110813Y2327150D01*
X-1106694Y2331694D01*
X-1102150Y2335813D01*
X-1097223Y2339467D01*
X-1091962Y2342620D01*
X-1086418Y2345242D01*
X-1080643Y2347309D01*
X-1074693Y2348799D01*
X-1068626Y2349699D01*
X-1062500Y2350000D01*
X-937500Y2350000D01*
X-931374Y2349699D01*
G37*
G36*
X-431374Y2349699D02*
G01*
X-425307Y2348799D01*
X-419357Y2347309D01*
X-413582Y2345242D01*
X-408038Y2342620D01*
X-402777Y2339467D01*
X-397850Y2335813D01*
X-393306Y2331694D01*
X-389187Y2327150D01*
X-385533Y2322223D01*
X-382380Y2316962D01*
X-379758Y2311418D01*
X-377691Y2305643D01*
X-376201Y2299693D01*
X-375301Y2293626D01*
X-375000Y2287500D01*
X-375000Y1562500D01*
X-375301Y1556374D01*
X-376201Y1550307D01*
X-377691Y1544357D01*
X-379758Y1538582D01*
X-382380Y1533038D01*
X-385533Y1527777D01*
X-389187Y1522850D01*
X-393306Y1518306D01*
X-397850Y1514187D01*
X-402777Y1510533D01*
X-408038Y1507380D01*
X-413582Y1504758D01*
X-419357Y1502691D01*
X-425307Y1501201D01*
X-431374Y1500301D01*
X-437500Y1500000D01*
X-562500Y1500000D01*
X-568626Y1500301D01*
X-574693Y1501201D01*
X-580643Y1502691D01*
X-586418Y1504758D01*
X-591962Y1507380D01*
X-597223Y1510533D01*
X-602150Y1514187D01*
X-606694Y1518306D01*
X-610813Y1522850D01*
X-614467Y1527777D01*
X-617620Y1533038D01*
X-620242Y1538582D01*
X-622309Y1544357D01*
X-623799Y1550307D01*
X-624699Y1556374D01*
X-625000Y1562500D01*
X-625000Y2287500D01*
X-624699Y2293626D01*
X-623799Y2299693D01*
X-622309Y2305643D01*
X-620242Y2311418D01*
X-617620Y2316962D01*
X-614467Y2322223D01*
X-610813Y2327150D01*
X-606694Y2331694D01*
X-602150Y2335813D01*
X-597223Y2339467D01*
X-591962Y2342620D01*
X-586418Y2345242D01*
X-580643Y2347309D01*
X-574693Y2348799D01*
X-568626Y2349699D01*
X-562500Y2350000D01*
X-437500Y2350000D01*
X-431374Y2349699D01*
G37*
G36*
X68626Y2349699D02*
G01*
X74693Y2348799D01*
X80643Y2347309D01*
X86418Y2345242D01*
X91962Y2342620D01*
X97223Y2339467D01*
X102150Y2335813D01*
X106694Y2331694D01*
X110813Y2327150D01*
X114467Y2322223D01*
X117620Y2316962D01*
X120242Y2311418D01*
X122309Y2305643D01*
X123799Y2299693D01*
X124699Y2293626D01*
X125000Y2287500D01*
X125000Y1562500D01*
X124699Y1556374D01*
X123799Y1550307D01*
X122309Y1544357D01*
X120242Y1538582D01*
X117620Y1533038D01*
X114467Y1527777D01*
X110813Y1522850D01*
X106694Y1518306D01*
X102150Y1514187D01*
X97223Y1510533D01*
X91962Y1507380D01*
X86418Y1504758D01*
X80643Y1502691D01*
X74693Y1501201D01*
X68626Y1500301D01*
X62500Y1500000D01*
X-62500Y1500000D01*
X-68626Y1500301D01*
X-74693Y1501201D01*
X-80643Y1502691D01*
X-86418Y1504758D01*
X-91962Y1507380D01*
X-97223Y1510533D01*
X-102150Y1514187D01*
X-106694Y1518306D01*
X-110813Y1522850D01*
X-114467Y1527777D01*
X-117620Y1533038D01*
X-120242Y1538582D01*
X-122309Y1544357D01*
X-123799Y1550307D01*
X-124699Y1556374D01*
X-125000Y1562500D01*
X-125000Y2287500D01*
X-124699Y2293626D01*
X-123799Y2299693D01*
X-122309Y2305643D01*
X-120242Y2311418D01*
X-117620Y2316962D01*
X-114467Y2322223D01*
X-110813Y2327150D01*
X-106694Y2331694D01*
X-102150Y2335813D01*
X-97223Y2339467D01*
X-91962Y2342620D01*
X-86418Y2345242D01*
X-80643Y2347309D01*
X-74693Y2348799D01*
X-68626Y2349699D01*
X-62500Y2350000D01*
X62500Y2350000D01*
X68626Y2349699D01*
G37*
G36*
X568626Y2349699D02*
G01*
X574693Y2348799D01*
X580643Y2347309D01*
X586418Y2345242D01*
X591962Y2342620D01*
X597223Y2339467D01*
X602150Y2335813D01*
X606694Y2331694D01*
X610813Y2327150D01*
X614467Y2322223D01*
X617620Y2316962D01*
X620242Y2311418D01*
X622309Y2305643D01*
X623799Y2299693D01*
X624699Y2293626D01*
X625000Y2287500D01*
X625000Y1562500D01*
X624699Y1556374D01*
X623799Y1550307D01*
X622309Y1544357D01*
X620242Y1538582D01*
X617620Y1533038D01*
X614467Y1527777D01*
X610813Y1522850D01*
X606694Y1518306D01*
X602150Y1514187D01*
X597223Y1510533D01*
X591962Y1507380D01*
X586418Y1504758D01*
X580643Y1502691D01*
X574693Y1501201D01*
X568626Y1500301D01*
X562500Y1500000D01*
X437500Y1500000D01*
X431374Y1500301D01*
X425307Y1501201D01*
X419357Y1502691D01*
X413582Y1504758D01*
X408038Y1507380D01*
X402777Y1510533D01*
X397850Y1514187D01*
X393306Y1518306D01*
X389187Y1522850D01*
X385533Y1527777D01*
X382380Y1533038D01*
X379758Y1538582D01*
X377691Y1544357D01*
X376201Y1550307D01*
X375301Y1556374D01*
X375000Y1562500D01*
X375000Y2287500D01*
X375301Y2293626D01*
X376201Y2299693D01*
X377691Y2305643D01*
X379758Y2311418D01*
X382380Y2316962D01*
X385533Y2322223D01*
X389187Y2327150D01*
X393306Y2331694D01*
X397850Y2335813D01*
X402777Y2339467D01*
X408038Y2342620D01*
X413582Y2345242D01*
X419357Y2347309D01*
X425307Y2348799D01*
X431374Y2349699D01*
X437500Y2350000D01*
X562500Y2350000D01*
X568626Y2349699D01*
G37*
G36*
X1068626Y2349699D02*
G01*
X1074693Y2348799D01*
X1080643Y2347309D01*
X1086418Y2345242D01*
X1091962Y2342620D01*
X1097223Y2339467D01*
X1102150Y2335813D01*
X1106694Y2331694D01*
X1110813Y2327150D01*
X1114467Y2322223D01*
X1117620Y2316962D01*
X1120242Y2311418D01*
X1122309Y2305643D01*
X1123799Y2299693D01*
X1124699Y2293626D01*
X1125000Y2287500D01*
X1125000Y1562500D01*
X1124699Y1556374D01*
X1123799Y1550307D01*
X1122309Y1544357D01*
X1120242Y1538582D01*
X1117620Y1533038D01*
X1114467Y1527777D01*
X1110813Y1522850D01*
X1106694Y1518306D01*
X1102150Y1514187D01*
X1097223Y1510533D01*
X1091962Y1507380D01*
X1086418Y1504758D01*
X1080643Y1502691D01*
X1074693Y1501201D01*
X1068626Y1500301D01*
X1062500Y1500000D01*
X937500Y1500000D01*
X931374Y1500301D01*
X925307Y1501201D01*
X919357Y1502691D01*
X913582Y1504758D01*
X908038Y1507380D01*
X902777Y1510533D01*
X897850Y1514187D01*
X893306Y1518306D01*
X889187Y1522850D01*
X885533Y1527777D01*
X882380Y1533038D01*
X879758Y1538582D01*
X877691Y1544357D01*
X876201Y1550307D01*
X875301Y1556374D01*
X875000Y1562500D01*
X875000Y2287500D01*
X875301Y2293626D01*
X876201Y2299693D01*
X877691Y2305643D01*
X879758Y2311418D01*
X882380Y2316962D01*
X885533Y2322223D01*
X889187Y2327150D01*
X893306Y2331694D01*
X897850Y2335813D01*
X902777Y2339467D01*
X908038Y2342620D01*
X913582Y2345242D01*
X919357Y2347309D01*
X925307Y2348799D01*
X931374Y2349699D01*
X937500Y2350000D01*
X1062500Y2350000D01*
X1068626Y2349699D01*
G37*
G36*
X2293626Y1124699D02*
G01*
X2299693Y1123799D01*
X2305643Y1122309D01*
X2311418Y1120242D01*
X2316962Y1117620D01*
X2322223Y1114467D01*
X2327150Y1110813D01*
X2331694Y1106694D01*
X2335813Y1102150D01*
X2339467Y1097223D01*
X2342620Y1091962D01*
X2345242Y1086418D01*
X2347309Y1080643D01*
X2348799Y1074693D01*
X2349699Y1068626D01*
X2350000Y1062500D01*
X2350000Y937500D01*
X2349699Y931374D01*
X2348799Y925307D01*
X2347309Y919357D01*
X2345242Y913582D01*
X2342620Y908038D01*
X2339467Y902777D01*
X2335813Y897850D01*
X2331694Y893306D01*
X2327150Y889187D01*
X2322223Y885533D01*
X2316962Y882380D01*
X2311418Y879758D01*
X2305643Y877691D01*
X2299693Y876201D01*
X2293626Y875301D01*
X2287500Y875000D01*
X1562500Y875000D01*
X1556374Y875301D01*
X1550307Y876201D01*
X1544357Y877691D01*
X1538582Y879758D01*
X1533038Y882380D01*
X1527777Y885533D01*
X1522850Y889187D01*
X1518306Y893306D01*
X1514187Y897850D01*
X1510533Y902777D01*
X1507380Y908038D01*
X1504758Y913582D01*
X1502691Y919357D01*
X1501201Y925307D01*
X1500301Y931374D01*
X1500000Y937500D01*
X1500000Y1062500D01*
X1500301Y1068626D01*
X1501201Y1074693D01*
X1502691Y1080643D01*
X1504758Y1086418D01*
X1507380Y1091962D01*
X1510533Y1097223D01*
X1514187Y1102150D01*
X1518306Y1106694D01*
X1522850Y1110813D01*
X1527777Y1114467D01*
X1533038Y1117620D01*
X1538582Y1120242D01*
X1544357Y1122309D01*
X1550307Y1123799D01*
X1556374Y1124699D01*
X1562500Y1125000D01*
X2287500Y1125000D01*
X2293626Y1124699D01*
G37*
G36*
X2293626Y624699D02*
G01*
X2299693Y623799D01*
X2305643Y622309D01*
X2311418Y620242D01*
X2316962Y617620D01*
X2322223Y614467D01*
X2327150Y610813D01*
X2331694Y606694D01*
X2335813Y602150D01*
X2339467Y597223D01*
X2342620Y591962D01*
X2345242Y586418D01*
X2347309Y580643D01*
X2348799Y574693D01*
X2349699Y568626D01*
X2350000Y562500D01*
X2350000Y437500D01*
X2349699Y431374D01*
X2348799Y425307D01*
X2347309Y419357D01*
X2345242Y413582D01*
X2342620Y408038D01*
X2339467Y402777D01*
X2335813Y397850D01*
X2331694Y393306D01*
X2327150Y389187D01*
X2322223Y385533D01*
X2316962Y382380D01*
X2311418Y379758D01*
X2305643Y377691D01*
X2299693Y376201D01*
X2293626Y375301D01*
X2287500Y375000D01*
X1562500Y375000D01*
X1556374Y375301D01*
X1550307Y376201D01*
X1544357Y377691D01*
X1538582Y379758D01*
X1533038Y382380D01*
X1527777Y385533D01*
X1522850Y389187D01*
X1518306Y393306D01*
X1514187Y397850D01*
X1510533Y402777D01*
X1507380Y408038D01*
X1504758Y413582D01*
X1502691Y419357D01*
X1501201Y425307D01*
X1500301Y431374D01*
X1500000Y437500D01*
X1500000Y562500D01*
X1500301Y568626D01*
X1501201Y574693D01*
X1502691Y580643D01*
X1504758Y586418D01*
X1507380Y591962D01*
X1510533Y597223D01*
X1514187Y602150D01*
X1518306Y606694D01*
X1522850Y610813D01*
X1527777Y614467D01*
X1533038Y617620D01*
X1538582Y620242D01*
X1544357Y622309D01*
X1550307Y623799D01*
X1556374Y624699D01*
X1562500Y625000D01*
X2287500Y625000D01*
X2293626Y624699D01*
G37*
G36*
X2293626Y124699D02*
G01*
X2299693Y123799D01*
X2305643Y122309D01*
X2311418Y120242D01*
X2316962Y117620D01*
X2322223Y114467D01*
X2327150Y110813D01*
X2331694Y106694D01*
X2335813Y102150D01*
X2339467Y97223D01*
X2342620Y91962D01*
X2345242Y86418D01*
X2347309Y80643D01*
X2348799Y74693D01*
X2349699Y68626D01*
X2350000Y62500D01*
X2350000Y-62500D01*
X2349699Y-68626D01*
X2348799Y-74693D01*
X2347309Y-80643D01*
X2345242Y-86418D01*
X2342620Y-91962D01*
X2339467Y-97223D01*
X2335813Y-102150D01*
X2331694Y-106694D01*
X2327150Y-110813D01*
X2322223Y-114467D01*
X2316962Y-117620D01*
X2311418Y-120242D01*
X2305643Y-122309D01*
X2299693Y-123799D01*
X2293626Y-124699D01*
X2287500Y-125000D01*
X1562500Y-125000D01*
X1556374Y-124699D01*
X1550307Y-123799D01*
X1544357Y-122309D01*
X1538582Y-120242D01*
X1533038Y-117620D01*
X1527777Y-114467D01*
X1522850Y-110813D01*
X1518306Y-106694D01*
X1514187Y-102150D01*
X1510533Y-97223D01*
X1507380Y-91962D01*
X1504758Y-86418D01*
X1502691Y-80643D01*
X1501201Y-74693D01*
X1500301Y-68626D01*
X1500000Y-62500D01*
X1500000Y62500D01*
X1500301Y68626D01*
X1501201Y74693D01*
X1502691Y80643D01*
X1504758Y86418D01*
X1507380Y91962D01*
X1510533Y97223D01*
X1514187Y102150D01*
X1518306Y106694D01*
X1522850Y110813D01*
X1527777Y114467D01*
X1533038Y117620D01*
X1538582Y120242D01*
X1544357Y122309D01*
X1550307Y123799D01*
X1556374Y124699D01*
X1562500Y125000D01*
X2287500Y125000D01*
X2293626Y124699D01*
G37*
G36*
X2293626Y-375301D02*
G01*
X2299693Y-376201D01*
X2305643Y-377691D01*
X2311418Y-379758D01*
X2316962Y-382380D01*
X2322223Y-385533D01*
X2327150Y-389187D01*
X2331694Y-393306D01*
X2335813Y-397850D01*
X2339467Y-402777D01*
X2342620Y-408038D01*
X2345242Y-413582D01*
X2347309Y-419357D01*
X2348799Y-425307D01*
X2349699Y-431374D01*
X2350000Y-437500D01*
X2350000Y-562500D01*
X2349699Y-568626D01*
X2348799Y-574693D01*
X2347309Y-580643D01*
X2345242Y-586418D01*
X2342620Y-591962D01*
X2339467Y-597223D01*
X2335813Y-602150D01*
X2331694Y-606694D01*
X2327150Y-610813D01*
X2322223Y-614467D01*
X2316962Y-617620D01*
X2311418Y-620242D01*
X2305643Y-622309D01*
X2299693Y-623799D01*
X2293626Y-624699D01*
X2287500Y-625000D01*
X1562500Y-625000D01*
X1556374Y-624699D01*
X1550307Y-623799D01*
X1544357Y-622309D01*
X1538582Y-620242D01*
X1533038Y-617620D01*
X1527777Y-614467D01*
X1522850Y-610813D01*
X1518306Y-606694D01*
X1514187Y-602150D01*
X1510533Y-597223D01*
X1507380Y-591962D01*
X1504758Y-586418D01*
X1502691Y-580643D01*
X1501201Y-574693D01*
X1500301Y-568626D01*
X1500000Y-562500D01*
X1500000Y-437500D01*
X1500301Y-431374D01*
X1501201Y-425307D01*
X1502691Y-419357D01*
X1504758Y-413582D01*
X1507380Y-408038D01*
X1510533Y-402777D01*
X1514187Y-397850D01*
X1518306Y-393306D01*
X1522850Y-389187D01*
X1527777Y-385533D01*
X1533038Y-382380D01*
X1538582Y-379758D01*
X1544357Y-377691D01*
X1550307Y-376201D01*
X1556374Y-375301D01*
X1562500Y-375000D01*
X2287500Y-375000D01*
X2293626Y-375301D01*
G37*
G36*
X2293626Y-875301D02*
G01*
X2299693Y-876201D01*
X2305643Y-877691D01*
X2311418Y-879758D01*
X2316962Y-882380D01*
X2322223Y-885533D01*
X2327150Y-889187D01*
X2331694Y-893306D01*
X2335813Y-897850D01*
X2339467Y-902777D01*
X2342620Y-908038D01*
X2345242Y-913582D01*
X2347309Y-919357D01*
X2348799Y-925307D01*
X2349699Y-931374D01*
X2350000Y-937500D01*
X2350000Y-1062500D01*
X2349699Y-1068626D01*
X2348799Y-1074693D01*
X2347309Y-1080643D01*
X2345242Y-1086418D01*
X2342620Y-1091962D01*
X2339467Y-1097223D01*
X2335813Y-1102150D01*
X2331694Y-1106694D01*
X2327150Y-1110813D01*
X2322223Y-1114467D01*
X2316962Y-1117620D01*
X2311418Y-1120242D01*
X2305643Y-1122309D01*
X2299693Y-1123799D01*
X2293626Y-1124699D01*
X2287500Y-1125000D01*
X1562500Y-1125000D01*
X1556374Y-1124699D01*
X1550307Y-1123799D01*
X1544357Y-1122309D01*
X1538582Y-1120242D01*
X1533038Y-1117620D01*
X1527777Y-1114467D01*
X1522850Y-1110813D01*
X1518306Y-1106694D01*
X1514187Y-1102150D01*
X1510533Y-1097223D01*
X1507380Y-1091962D01*
X1504758Y-1086418D01*
X1502691Y-1080643D01*
X1501201Y-1074693D01*
X1500301Y-1068626D01*
X1500000Y-1062500D01*
X1500000Y-937500D01*
X1500301Y-931374D01*
X1501201Y-925307D01*
X1502691Y-919357D01*
X1504758Y-913582D01*
X1507380Y-908038D01*
X1510533Y-902777D01*
X1514187Y-897850D01*
X1518306Y-893306D01*
X1522850Y-889187D01*
X1527777Y-885533D01*
X1533038Y-882380D01*
X1538582Y-879758D01*
X1544357Y-877691D01*
X1550307Y-876201D01*
X1556374Y-875301D01*
X1562500Y-875000D01*
X2287500Y-875000D01*
X2293626Y-875301D01*
G37*
G36*
X-350495Y1173796D02*
G01*
X-326227Y1170196D01*
X-302428Y1164235D01*
X-279329Y1155970D01*
X-257150Y1145480D01*
X-236107Y1132868D01*
X-216401Y1118253D01*
X-198223Y1101777D01*
X-181747Y1083599D01*
X-167132Y1063893D01*
X-154520Y1042850D01*
X-144030Y1020671D01*
X-135765Y997572D01*
X-129804Y973773D01*
X-126204Y949505D01*
X-125000Y925001D01*
X-125000Y374999D01*
X-126204Y350495D01*
X-129804Y326227D01*
X-135765Y302428D01*
X-144030Y279329D01*
X-154520Y257150D01*
X-167132Y236107D01*
X-181747Y216401D01*
X-198223Y198223D01*
X-216401Y181747D01*
X-236107Y167132D01*
X-257150Y154520D01*
X-279329Y144030D01*
X-302428Y135765D01*
X-326227Y129804D01*
X-350495Y126204D01*
X-374999Y125000D01*
X-925001Y125000D01*
X-949505Y126204D01*
X-973773Y129804D01*
X-997572Y135765D01*
X-1020671Y144030D01*
X-1042850Y154520D01*
X-1063893Y167132D01*
X-1083599Y181747D01*
X-1101777Y198223D01*
X-1118253Y216401D01*
X-1132868Y236107D01*
X-1145480Y257150D01*
X-1155970Y279329D01*
X-1164235Y302428D01*
X-1170196Y326227D01*
X-1173796Y350495D01*
X-1175000Y374999D01*
X-1175000Y925001D01*
X-1173796Y949505D01*
X-1170196Y973773D01*
X-1164235Y997572D01*
X-1155970Y1020671D01*
X-1145480Y1042850D01*
X-1132868Y1063893D01*
X-1118253Y1083599D01*
X-1101777Y1101777D01*
X-1083599Y1118253D01*
X-1063893Y1132868D01*
X-1042850Y1145480D01*
X-1020671Y1155970D01*
X-997572Y1164235D01*
X-973773Y1170196D01*
X-949505Y1173796D01*
X-925001Y1175000D01*
X-374999Y1175000D01*
X-350495Y1173796D01*
G37*
G36*
X-350495Y-126204D02*
G01*
X-326227Y-129804D01*
X-302428Y-135765D01*
X-279329Y-144030D01*
X-257150Y-154520D01*
X-236107Y-167132D01*
X-216401Y-181747D01*
X-198223Y-198223D01*
X-181747Y-216401D01*
X-167132Y-236107D01*
X-154520Y-257150D01*
X-144030Y-279329D01*
X-135765Y-302428D01*
X-129804Y-326227D01*
X-126204Y-350495D01*
X-125000Y-374999D01*
X-125000Y-925001D01*
X-126204Y-949505D01*
X-129804Y-973773D01*
X-135765Y-997572D01*
X-144030Y-1020671D01*
X-154520Y-1042850D01*
X-167132Y-1063893D01*
X-181747Y-1083599D01*
X-198223Y-1101777D01*
X-216401Y-1118253D01*
X-236107Y-1132868D01*
X-257150Y-1145480D01*
X-279329Y-1155970D01*
X-302428Y-1164235D01*
X-326227Y-1170196D01*
X-350495Y-1173796D01*
X-374999Y-1175000D01*
X-925001Y-1175000D01*
X-949505Y-1173796D01*
X-973773Y-1170196D01*
X-997572Y-1164235D01*
X-1020671Y-1155970D01*
X-1042850Y-1145480D01*
X-1063893Y-1132868D01*
X-1083599Y-1118253D01*
X-1101777Y-1101777D01*
X-1118253Y-1083599D01*
X-1132868Y-1063893D01*
X-1145480Y-1042850D01*
X-1155970Y-1020671D01*
X-1164235Y-997572D01*
X-1170196Y-973773D01*
X-1173796Y-949505D01*
X-1175000Y-925001D01*
X-1175000Y-374999D01*
X-1173796Y-350495D01*
X-1170196Y-326227D01*
X-1164235Y-302428D01*
X-1155970Y-279329D01*
X-1145480Y-257150D01*
X-1132868Y-236107D01*
X-1118253Y-216401D01*
X-1101777Y-198223D01*
X-1083599Y-181747D01*
X-1063893Y-167132D01*
X-1042850Y-154520D01*
X-1020671Y-144030D01*
X-997572Y-135765D01*
X-973773Y-129804D01*
X-949505Y-126204D01*
X-925001Y-125000D01*
X-374999Y-125000D01*
X-350495Y-126204D01*
G37*
G36*
X949505Y1173796D02*
G01*
X973773Y1170196D01*
X997572Y1164235D01*
X1020671Y1155970D01*
X1042850Y1145480D01*
X1063893Y1132868D01*
X1083599Y1118253D01*
X1101777Y1101777D01*
X1118253Y1083599D01*
X1132868Y1063893D01*
X1145480Y1042850D01*
X1155970Y1020671D01*
X1164235Y997572D01*
X1170196Y973773D01*
X1173796Y949505D01*
X1175000Y925001D01*
X1175000Y374999D01*
X1173796Y350495D01*
X1170196Y326227D01*
X1164235Y302428D01*
X1155970Y279329D01*
X1145480Y257150D01*
X1132868Y236107D01*
X1118253Y216401D01*
X1101777Y198223D01*
X1083599Y181747D01*
X1063893Y167132D01*
X1042850Y154520D01*
X1020671Y144030D01*
X997572Y135765D01*
X973773Y129804D01*
X949505Y126204D01*
X925001Y125000D01*
X374999Y125000D01*
X350495Y126204D01*
X326227Y129804D01*
X302428Y135765D01*
X279329Y144030D01*
X257150Y154520D01*
X236107Y167132D01*
X216401Y181747D01*
X198223Y198223D01*
X181747Y216401D01*
X167132Y236107D01*
X154520Y257150D01*
X144030Y279329D01*
X135765Y302428D01*
X129804Y326227D01*
X126204Y350495D01*
X125000Y374999D01*
X125000Y925001D01*
X126204Y949505D01*
X129804Y973773D01*
X135765Y997572D01*
X144030Y1020671D01*
X154520Y1042850D01*
X167132Y1063893D01*
X181747Y1083599D01*
X198223Y1101777D01*
X216401Y1118253D01*
X236107Y1132868D01*
X257150Y1145480D01*
X279329Y1155970D01*
X302428Y1164235D01*
X326227Y1170196D01*
X350495Y1173796D01*
X374999Y1175000D01*
X925001Y1175000D01*
X949505Y1173796D01*
G37*
G36*
X949505Y-126204D02*
G01*
X973773Y-129804D01*
X997572Y-135765D01*
X1020671Y-144030D01*
X1042850Y-154520D01*
X1063893Y-167132D01*
X1083599Y-181747D01*
X1101777Y-198223D01*
X1118253Y-216401D01*
X1132868Y-236107D01*
X1145480Y-257150D01*
X1155970Y-279329D01*
X1164235Y-302428D01*
X1170196Y-326227D01*
X1173796Y-350495D01*
X1175000Y-374999D01*
X1175000Y-925001D01*
X1173796Y-949505D01*
X1170196Y-973773D01*
X1164235Y-997572D01*
X1155970Y-1020671D01*
X1145480Y-1042850D01*
X1132868Y-1063893D01*
X1118253Y-1083599D01*
X1101777Y-1101777D01*
X1083599Y-1118253D01*
X1063893Y-1132868D01*
X1042850Y-1145480D01*
X1020671Y-1155970D01*
X997572Y-1164235D01*
X973773Y-1170196D01*
X949505Y-1173796D01*
X925001Y-1175000D01*
X374999Y-1175000D01*
X350495Y-1173796D01*
X326227Y-1170196D01*
X302428Y-1164235D01*
X279329Y-1155970D01*
X257150Y-1145480D01*
X236107Y-1132868D01*
X216401Y-1118253D01*
X198223Y-1101777D01*
X181747Y-1083599D01*
X167132Y-1063893D01*
X154520Y-1042850D01*
X144030Y-1020671D01*
X135765Y-997572D01*
X129804Y-973773D01*
X126204Y-949505D01*
X125000Y-925001D01*
X125000Y-374999D01*
X126204Y-350495D01*
X129804Y-326227D01*
X135765Y-302428D01*
X144030Y-279329D01*
X154520Y-257150D01*
X167132Y-236107D01*
X181747Y-216401D01*
X198223Y-198223D01*
X216401Y-181747D01*
X236107Y-167132D01*
X257150Y-154520D01*
X279329Y-144030D01*
X302428Y-135765D01*
X326227Y-129804D01*
X350495Y-126204D01*
X374999Y-125000D01*
X925001Y-125000D01*
X949505Y-126204D01*
G37*
D11*
X-4065500Y500000D03*
X-4065500Y0D03*
X-4065500Y-500000D03*
D12*
X-4203000Y-1137500D03*
X-4703000Y-1137500D03*
X-5203000Y-1137500D03*
X-5703000Y-1137500D03*
D11*
X-5840500Y-500000D03*
X-5840500Y0D03*
X-5840500Y500000D03*
D12*
X-5703000Y1137500D03*
X-5203000Y1137500D03*
X-4703000Y1137500D03*
D10*
G36*
X-4203000Y800000D02*
G01*
X-4328000Y800000D01*
X-4328000Y1475000D01*
X-4078000Y1475000D01*
X-4078000Y925000D01*
X-4203000Y800000D01*
G37*
G36*
X2926958Y1894290D02*
G01*
X2941276Y1892166D01*
X2955317Y1888649D01*
X2968946Y1883772D01*
X2982031Y1877583D01*
X2994447Y1870142D01*
X3006073Y1861519D01*
X3016798Y1851798D01*
X3026519Y1841073D01*
X3035142Y1829447D01*
X3042583Y1817031D01*
X3048772Y1803946D01*
X3053649Y1790317D01*
X3057166Y1776276D01*
X3059290Y1761958D01*
X3060000Y1747500D01*
X3060000Y1402500D01*
X3059290Y1388042D01*
X3057166Y1373724D01*
X3053649Y1359683D01*
X3048772Y1346054D01*
X3042583Y1332969D01*
X3035142Y1320553D01*
X3026519Y1308927D01*
X3016798Y1298202D01*
X3006073Y1288481D01*
X2994447Y1279858D01*
X2982031Y1272417D01*
X2968946Y1266228D01*
X2955317Y1261351D01*
X2941276Y1257834D01*
X2926958Y1255710D01*
X2912500Y1255000D01*
X2617500Y1255000D01*
X2603042Y1255710D01*
X2588724Y1257834D01*
X2574683Y1261351D01*
X2561054Y1266228D01*
X2547969Y1272417D01*
X2535553Y1279858D01*
X2523927Y1288481D01*
X2513202Y1298202D01*
X2503481Y1308927D01*
X2494858Y1320553D01*
X2487417Y1332969D01*
X2481228Y1346054D01*
X2476351Y1359683D01*
X2472834Y1373724D01*
X2470710Y1388042D01*
X2470000Y1402500D01*
X2470000Y1747500D01*
X2470710Y1761958D01*
X2472834Y1776276D01*
X2476351Y1790317D01*
X2481228Y1803946D01*
X2487417Y1817031D01*
X2494858Y1829447D01*
X2503481Y1841073D01*
X2513202Y1851798D01*
X2523927Y1861519D01*
X2535553Y1870142D01*
X2547969Y1877583D01*
X2561054Y1883772D01*
X2574683Y1888649D01*
X2588724Y1892166D01*
X2603042Y1894290D01*
X2617500Y1895000D01*
X2912500Y1895000D01*
X2926958Y1894290D01*
G37*
G36*
X3896958Y1894290D02*
G01*
X3911276Y1892166D01*
X3925317Y1888649D01*
X3938946Y1883772D01*
X3952031Y1877583D01*
X3964447Y1870142D01*
X3976073Y1861519D01*
X3986798Y1851798D01*
X3996519Y1841073D01*
X4005142Y1829447D01*
X4012583Y1817031D01*
X4018772Y1803946D01*
X4023649Y1790317D01*
X4027166Y1776276D01*
X4029290Y1761958D01*
X4030000Y1747500D01*
X4030000Y1402500D01*
X4029290Y1388042D01*
X4027166Y1373724D01*
X4023649Y1359683D01*
X4018772Y1346054D01*
X4012583Y1332969D01*
X4005142Y1320553D01*
X3996519Y1308927D01*
X3986798Y1298202D01*
X3976073Y1288481D01*
X3964447Y1279858D01*
X3952031Y1272417D01*
X3938946Y1266228D01*
X3925317Y1261351D01*
X3911276Y1257834D01*
X3896958Y1255710D01*
X3882500Y1255000D01*
X3587500Y1255000D01*
X3573042Y1255710D01*
X3558724Y1257834D01*
X3544683Y1261351D01*
X3531054Y1266228D01*
X3517969Y1272417D01*
X3505553Y1279858D01*
X3493927Y1288481D01*
X3483202Y1298202D01*
X3473481Y1308927D01*
X3464858Y1320553D01*
X3457417Y1332969D01*
X3451228Y1346054D01*
X3446351Y1359683D01*
X3442834Y1373724D01*
X3440710Y1388042D01*
X3440000Y1402500D01*
X3440000Y1747500D01*
X3440710Y1761958D01*
X3442834Y1776276D01*
X3446351Y1790317D01*
X3451228Y1803946D01*
X3457417Y1817031D01*
X3464858Y1829447D01*
X3473481Y1841073D01*
X3483202Y1851798D01*
X3493927Y1861519D01*
X3505553Y1870142D01*
X3517969Y1877583D01*
X3531054Y1883772D01*
X3544683Y1888649D01*
X3558724Y1892166D01*
X3573042Y1894290D01*
X3587500Y1895000D01*
X3882500Y1895000D01*
X3896958Y1894290D01*
G37*
G36*
X3050000Y453553D02*
G01*
X3403553Y100000D01*
X3050000Y-253553D01*
X2696447Y100000D01*
X3050000Y453553D01*
G37*
G36*
X3500500Y-425000D02*
G01*
X3224500Y-425000D01*
X3224500Y-320000D01*
X3419500Y-125000D01*
X3500500Y-125000D01*
X3500500Y-425000D01*
G37*
G36*
X2875500Y-320000D02*
G01*
X2875500Y-425000D01*
X2599500Y-425000D01*
X2599500Y-125000D01*
X2680500Y-125000D01*
X2875500Y-320000D01*
G37*
G36*
X2599500Y625000D02*
G01*
X2875500Y625000D01*
X2875500Y520000D01*
X2680500Y325000D01*
X2599500Y325000D01*
X2599500Y625000D01*
G37*
G36*
X3224500Y520000D02*
G01*
X3224500Y625000D01*
X3500500Y625000D01*
X3500500Y325000D01*
X3419500Y325000D01*
X3224500Y520000D01*
G37*
D13*
X4085000Y-500000D03*
X4085000Y500000D03*
X5915000Y500000D03*
X5915000Y-500000D03*
X7085000Y-500000D03*
X7085000Y500000D03*
X8915000Y500000D03*
X8915000Y-500000D03*
X10085000Y-500000D03*
X10085000Y500000D03*
X11915000Y500000D03*
X11915000Y-500000D03*
X13085000Y-500000D03*
X13085000Y500000D03*
X14915000Y500000D03*
X14915000Y-500000D03*
X16085000Y-500000D03*
X16085000Y500000D03*
X17915000Y500000D03*
X17915000Y-500000D03*
X19085000Y-500000D03*
X19085000Y500000D03*
X20915000Y500000D03*
X20915000Y-500000D03*
X22085000Y-500000D03*
X22085000Y500000D03*
X23915000Y500000D03*
X23915000Y-500000D03*
X25085000Y-500000D03*
X25085000Y500000D03*
X26915000Y500000D03*
X26915000Y-500000D03*
D10*
G36*
X-2454242Y1944890D02*
G01*
X-2439924Y1942766D01*
X-2425883Y1939249D01*
X-2412254Y1934372D01*
X-2399169Y1928183D01*
X-2386753Y1920742D01*
X-2375127Y1912119D01*
X-2364402Y1902398D01*
X-2354681Y1891673D01*
X-2346058Y1880047D01*
X-2338617Y1867631D01*
X-2332428Y1854546D01*
X-2327551Y1840917D01*
X-2324034Y1826876D01*
X-2321910Y1812558D01*
X-2321200Y1798100D01*
X-2321200Y1453100D01*
X-2321910Y1438642D01*
X-2324034Y1424324D01*
X-2327551Y1410283D01*
X-2332428Y1396654D01*
X-2338617Y1383569D01*
X-2346058Y1371153D01*
X-2354681Y1359527D01*
X-2364402Y1348802D01*
X-2375127Y1339081D01*
X-2386753Y1330458D01*
X-2399169Y1323017D01*
X-2412254Y1316828D01*
X-2425883Y1311951D01*
X-2439924Y1308434D01*
X-2454242Y1306310D01*
X-2468700Y1305600D01*
X-2763700Y1305600D01*
X-2778158Y1306310D01*
X-2792476Y1308434D01*
X-2806517Y1311951D01*
X-2820146Y1316828D01*
X-2833231Y1323017D01*
X-2845647Y1330458D01*
X-2857273Y1339081D01*
X-2867998Y1348802D01*
X-2877719Y1359527D01*
X-2886342Y1371153D01*
X-2893783Y1383569D01*
X-2899972Y1396654D01*
X-2904849Y1410283D01*
X-2908366Y1424324D01*
X-2910490Y1438642D01*
X-2911200Y1453100D01*
X-2911200Y1798100D01*
X-2910490Y1812558D01*
X-2908366Y1826876D01*
X-2904849Y1840917D01*
X-2899972Y1854546D01*
X-2893783Y1867631D01*
X-2886342Y1880047D01*
X-2877719Y1891673D01*
X-2867998Y1902398D01*
X-2857273Y1912119D01*
X-2845647Y1920742D01*
X-2833231Y1928183D01*
X-2820146Y1934372D01*
X-2806517Y1939249D01*
X-2792476Y1942766D01*
X-2778158Y1944890D01*
X-2763700Y1945600D01*
X-2468700Y1945600D01*
X-2454242Y1944890D01*
G37*
G36*
X-3424242Y1944890D02*
G01*
X-3409924Y1942766D01*
X-3395883Y1939249D01*
X-3382254Y1934372D01*
X-3369169Y1928183D01*
X-3356753Y1920742D01*
X-3345127Y1912119D01*
X-3334402Y1902398D01*
X-3324681Y1891673D01*
X-3316058Y1880047D01*
X-3308617Y1867631D01*
X-3302428Y1854546D01*
X-3297551Y1840917D01*
X-3294034Y1826876D01*
X-3291910Y1812558D01*
X-3291200Y1798100D01*
X-3291200Y1453100D01*
X-3291910Y1438642D01*
X-3294034Y1424324D01*
X-3297551Y1410283D01*
X-3302428Y1396654D01*
X-3308617Y1383569D01*
X-3316058Y1371153D01*
X-3324681Y1359527D01*
X-3334402Y1348802D01*
X-3345127Y1339081D01*
X-3356753Y1330458D01*
X-3369169Y1323017D01*
X-3382254Y1316828D01*
X-3395883Y1311951D01*
X-3409924Y1308434D01*
X-3424242Y1306310D01*
X-3438700Y1305600D01*
X-3733700Y1305600D01*
X-3748158Y1306310D01*
X-3762476Y1308434D01*
X-3776517Y1311951D01*
X-3790146Y1316828D01*
X-3803231Y1323017D01*
X-3815647Y1330458D01*
X-3827273Y1339081D01*
X-3837998Y1348802D01*
X-3847719Y1359527D01*
X-3856342Y1371153D01*
X-3863783Y1383569D01*
X-3869972Y1396654D01*
X-3874849Y1410283D01*
X-3878366Y1424324D01*
X-3880490Y1438642D01*
X-3881200Y1453100D01*
X-3881200Y1798100D01*
X-3880490Y1812558D01*
X-3878366Y1826876D01*
X-3874849Y1840917D01*
X-3869972Y1854546D01*
X-3863783Y1867631D01*
X-3856342Y1880047D01*
X-3847719Y1891673D01*
X-3837998Y1902398D01*
X-3827273Y1912119D01*
X-3815647Y1920742D01*
X-3803231Y1928183D01*
X-3790146Y1934372D01*
X-3776517Y1939249D01*
X-3762476Y1942766D01*
X-3748158Y1944890D01*
X-3733700Y1945600D01*
X-3438700Y1945600D01*
X-3424242Y1944890D01*
G37*
M02*
