G04 #@! TF.GenerationSoftware,KiCad,Pcbnew,(5.1.5)-3*
G04 #@! TF.CreationDate,2020-05-01T17:56:44+02:00*
G04 #@! TF.ProjectId,artDecoEarrings,61727444-6563-46f4-9561-7272696e6773,rev?*
G04 #@! TF.SameCoordinates,Original*
G04 #@! TF.FileFunction,Copper,L2,Bot*
G04 #@! TF.FilePolarity,Positive*
%FSLAX46Y46*%
G04 Gerber Fmt 4.6, Leading zero omitted, Abs format (unit mm)*
G04 Created by KiCad (PCBNEW (5.1.5)-3) date 2020-05-01 17:56:44*
%MOMM*%
%LPD*%
G04 APERTURE LIST*
%ADD10C,0.787400*%
%ADD11C,1.500000*%
%ADD12C,0.508000*%
%ADD13C,0.500000*%
%ADD14C,0.400000*%
%ADD15C,0.152400*%
G04 APERTURE END LIST*
D10*
X-5651500Y-1270000D03*
X-4381500Y-1270000D03*
X-5651500Y0D03*
X-4381500Y0D03*
X-5651500Y1270000D03*
X-4381500Y1270000D03*
D11*
X-8100000Y0D03*
X1600000Y0D03*
X-800000Y0D03*
D12*
X5000000Y-500000D03*
X8000000Y-500000D03*
X11000000Y-500000D03*
X14000000Y-500000D03*
X17000000Y-500000D03*
X20000000Y-500000D03*
X23000000Y-500000D03*
X26000000Y-500000D03*
X4000000Y-500000D03*
X-6858000Y508000D03*
X5000000Y500000D03*
X8000000Y500000D03*
X11000000Y500000D03*
X14000000Y500000D03*
X17000000Y500000D03*
X20000000Y500000D03*
X23000000Y500000D03*
X26000000Y500000D03*
X-1651000Y1651000D03*
X1700000Y1600000D03*
X-6350000Y1270000D03*
X3325000Y975000D03*
X-1800000Y-1400000D03*
X-2770000Y30000D03*
X-3430000Y0D03*
X-3124200Y609600D03*
X2100000Y-1400000D03*
X3300000Y-975000D03*
X4085000Y500000D03*
D13*
X5000000Y-500000D02*
X8000000Y-500000D01*
X8000000Y-500000D02*
X11000000Y-500000D01*
X11000000Y-500000D02*
X14000000Y-500000D01*
X14000000Y-500000D02*
X17000000Y-500000D01*
X17000000Y-500000D02*
X20000000Y-500000D01*
X20000000Y-500000D02*
X23000000Y-500000D01*
X23000000Y-500000D02*
X26000000Y-500000D01*
D14*
X3585000Y0D02*
X1600000Y0D01*
X4000000Y-500000D02*
X3585000Y0D01*
D15*
X-6858000Y-63500D02*
X-5651500Y-1270000D01*
X-6858000Y508000D02*
X-6858000Y-63500D01*
D13*
X5000000Y500000D02*
X8000000Y500000D01*
X8000000Y500000D02*
X11000000Y500000D01*
X11000000Y500000D02*
X14000000Y500000D01*
X14000000Y500000D02*
X17000000Y500000D01*
X17000000Y500000D02*
X20000000Y500000D01*
X20000000Y500000D02*
X23000000Y500000D01*
X23000000Y500000D02*
X26000000Y500000D01*
D15*
X-5016500Y-635000D02*
X-5651500Y-1270000D01*
X-2730500Y-635000D02*
X-5016500Y-635000D01*
X-2286000Y-190500D02*
X-2730500Y-635000D01*
X-2286000Y1397000D02*
X-2286000Y-190500D01*
X-1651000Y1651000D02*
X-2032000Y1651000D01*
X-2032000Y1651000D02*
X-2286000Y1397000D01*
D14*
X5000000Y500000D02*
X5000000Y800000D01*
X4200000Y1600000D02*
X1700000Y1600000D01*
X5000000Y800000D02*
X4200000Y1600000D01*
D13*
X1700000Y1600000D02*
X800000Y1600000D01*
X800000Y1600000D02*
X-800000Y0D01*
D15*
X-6350000Y1270000D02*
X-5651500Y1270000D01*
X3325000Y975000D02*
X3400000Y900000D01*
X3200000Y1100000D02*
X3325000Y975000D01*
X1000000Y1100000D02*
X3200000Y1100000D01*
X400000Y500000D02*
X1000000Y1100000D01*
X400000Y-400000D02*
X400000Y500000D01*
X-1800000Y-1400000D02*
X-600000Y-1400000D01*
X-600000Y-1400000D02*
X400000Y-400000D01*
X-2770000Y30000D02*
X-2590800Y209200D01*
X-2590800Y209200D02*
X-2590800Y876300D01*
X-2590800Y876300D02*
X-2806700Y1092200D01*
X-2806700Y1092200D02*
X-4203700Y1092200D01*
X-4203700Y1092200D02*
X-4381500Y1270000D01*
X-3430000Y0D02*
X-4381500Y0D01*
X-5257801Y393699D02*
X-5651500Y0D01*
X-5016500Y635000D02*
X-5257801Y393699D01*
X-3149600Y635000D02*
X-5016500Y635000D01*
X-3124200Y609600D02*
X-3149600Y635000D01*
X-3901500Y-1750000D02*
X-4381500Y-1270000D01*
X-2150000Y-1750000D02*
X-3901500Y-1750000D01*
X-150000Y-1400000D02*
X-500000Y-1750000D01*
X2100000Y-1400000D02*
X-150000Y-1400000D01*
X-500000Y-1750000D02*
X-1300000Y-1750000D01*
X-1300000Y-1750000D02*
X-1450000Y-1900000D01*
X-1450000Y-1900000D02*
X-2000000Y-1900000D01*
X-2000000Y-1900000D02*
X-2150000Y-1750000D01*
X4500000Y85000D02*
X4085000Y500000D01*
X4500000Y-1150000D02*
X4500000Y85000D01*
X3550000Y-1150000D02*
X4500000Y-1150000D01*
X3300000Y-975000D02*
X3375000Y-975000D01*
X3375000Y-975000D02*
X3550000Y-1150000D01*
M02*
