G04 #@! TF.GenerationSoftware,KiCad,Pcbnew,(5.1.5)-3*
G04 #@! TF.CreationDate,2020-05-01T17:56:44+02:00*
G04 #@! TF.ProjectId,artDecoEarrings,61727444-6563-46f4-9561-7272696e6773,rev?*
G04 #@! TF.SameCoordinates,Original*
G04 #@! TF.FileFunction,Soldermask,Top*
G04 #@! TF.FilePolarity,Negative*
%FSLAX46Y46*%
G04 Gerber Fmt 4.6, Leading zero omitted, Abs format (unit mm)*
G04 Created by KiCad (PCBNEW (5.1.5)-3) date 2020-05-01 17:56:44*
%MOMM*%
%LPD*%
G04 APERTURE LIST*
%ADD10C,0.100000*%
G04 APERTURE END LIST*
D10*
G36*
X24600000Y-900000D02*
G01*
X24400000Y-900000D01*
X24400000Y900000D01*
X24600000Y900000D01*
X24600000Y-900000D01*
G37*
G36*
X21600000Y-900000D02*
G01*
X21400000Y-900000D01*
X21400000Y900000D01*
X21600000Y900000D01*
X21600000Y-900000D01*
G37*
G36*
X18600000Y-900000D02*
G01*
X18400000Y-900000D01*
X18400000Y900000D01*
X18600000Y900000D01*
X18600000Y-900000D01*
G37*
G36*
X15600000Y-900000D02*
G01*
X15400000Y-900000D01*
X15400000Y900000D01*
X15600000Y900000D01*
X15600000Y-900000D01*
G37*
G36*
X12600000Y-900000D02*
G01*
X12400000Y-900000D01*
X12400000Y900000D01*
X12600000Y900000D01*
X12600000Y-900000D01*
G37*
G36*
X9600000Y-900000D02*
G01*
X9400000Y-900000D01*
X9400000Y900000D01*
X9600000Y900000D01*
X9600000Y-900000D01*
G37*
G36*
X6600000Y-900000D02*
G01*
X6400000Y-900000D01*
X6400000Y900000D01*
X6600000Y900000D01*
X6600000Y-900000D01*
G37*
G36*
X15350000Y1150000D02*
G01*
X4750000Y1150000D01*
X4750000Y1250000D01*
X15350000Y1150000D01*
G37*
G36*
X27450000Y1000000D02*
G01*
X4200000Y1800000D01*
X4200000Y2000000D01*
X27450000Y1000000D01*
G37*
G36*
X27450000Y1000000D02*
G01*
X4200000Y1400000D01*
X4200000Y1600000D01*
X27450000Y1000000D01*
G37*
G36*
X4800000Y-1250000D02*
G01*
X4800000Y-1150000D01*
X15400000Y-1150000D01*
X4800000Y-1250000D01*
G37*
G36*
X4250000Y-1600000D02*
G01*
X4250000Y-1400000D01*
X27500000Y-1000000D01*
X4250000Y-1600000D01*
G37*
G36*
X4250000Y-2000000D02*
G01*
X4250000Y-1800000D01*
X27500000Y-1000000D01*
X4250000Y-2000000D01*
G37*
G36*
X27250000Y-1000000D02*
G01*
X27250000Y-750000D01*
X30000000Y0D01*
X27250000Y-1000000D01*
G37*
G36*
X27250000Y-500000D02*
G01*
X27250000Y-250000D01*
X30000000Y0D01*
X27250000Y-500000D01*
G37*
G36*
X28750000Y0D02*
G01*
X28000000Y0D01*
X27250000Y250000D01*
X27250000Y750000D01*
X28750000Y0D01*
G37*
G36*
X30000000Y0D02*
G01*
X29500000Y0D01*
X27250000Y1000000D01*
X27500000Y1000000D01*
X30000000Y0D01*
G37*
G36*
X-3893922Y-2004197D02*
G01*
X-3841150Y-2014694D01*
X-3741730Y-2055875D01*
X-3652254Y-2115661D01*
X-3576161Y-2191754D01*
X-3516375Y-2281230D01*
X-3475194Y-2380650D01*
X-3454200Y-2486194D01*
X-3454200Y-2593806D01*
X-3475194Y-2699350D01*
X-3516375Y-2798770D01*
X-3576161Y-2888246D01*
X-3652254Y-2964339D01*
X-3741730Y-3024125D01*
X-3841150Y-3065306D01*
X-3893922Y-3075803D01*
X-3946693Y-3086300D01*
X-4054307Y-3086300D01*
X-4107078Y-3075803D01*
X-4159850Y-3065306D01*
X-4259270Y-3024125D01*
X-4348746Y-2964339D01*
X-4424839Y-2888246D01*
X-4484625Y-2798770D01*
X-4525806Y-2699350D01*
X-4546800Y-2593806D01*
X-4546800Y-2486194D01*
X-4525806Y-2380650D01*
X-4484625Y-2281230D01*
X-4424839Y-2191754D01*
X-4348746Y-2115661D01*
X-4259270Y-2055875D01*
X-4159850Y-2014694D01*
X-4107078Y-2004197D01*
X-4054307Y-1993700D01*
X-3946693Y-1993700D01*
X-3893922Y-2004197D01*
G37*
G36*
X-5925922Y-2004197D02*
G01*
X-5873150Y-2014694D01*
X-5773730Y-2055875D01*
X-5684254Y-2115661D01*
X-5608161Y-2191754D01*
X-5548375Y-2281230D01*
X-5507194Y-2380650D01*
X-5486200Y-2486194D01*
X-5486200Y-2593806D01*
X-5507194Y-2699350D01*
X-5548375Y-2798770D01*
X-5608161Y-2888246D01*
X-5684254Y-2964339D01*
X-5773730Y-3024125D01*
X-5873150Y-3065306D01*
X-5925922Y-3075803D01*
X-5978693Y-3086300D01*
X-6086307Y-3086300D01*
X-6139078Y-3075803D01*
X-6191850Y-3065306D01*
X-6291270Y-3024125D01*
X-6380746Y-2964339D01*
X-6456839Y-2888246D01*
X-6516625Y-2798770D01*
X-6557806Y-2699350D01*
X-6578800Y-2593806D01*
X-6578800Y-2486194D01*
X-6557806Y-2380650D01*
X-6516625Y-2281230D01*
X-6456839Y-2191754D01*
X-6380746Y-2115661D01*
X-6291270Y-2055875D01*
X-6191850Y-2014694D01*
X-6139078Y-2004197D01*
X-6086307Y-1993700D01*
X-5978693Y-1993700D01*
X-5925922Y-2004197D01*
G37*
G36*
X-844645Y2399917D02*
G01*
X-839971Y2398499D01*
X-835670Y2396200D01*
X-829298Y2390971D01*
X-808924Y2377357D01*
X-786285Y2367980D01*
X-762251Y2363200D01*
X-737747Y2363200D01*
X-713714Y2367981D01*
X-691075Y2377358D01*
X-670702Y2390971D01*
X-664330Y2396200D01*
X-660029Y2398499D01*
X-655355Y2399917D01*
X-644359Y2401000D01*
X-355641Y2401000D01*
X-344645Y2399917D01*
X-339971Y2398499D01*
X-335670Y2396200D01*
X-329298Y2390971D01*
X-308924Y2377357D01*
X-286285Y2367980D01*
X-262251Y2363200D01*
X-237747Y2363200D01*
X-213714Y2367981D01*
X-191075Y2377358D01*
X-170702Y2390971D01*
X-164330Y2396200D01*
X-160029Y2398499D01*
X-155355Y2399917D01*
X-144359Y2401000D01*
X144359Y2401000D01*
X155355Y2399917D01*
X160029Y2398499D01*
X164330Y2396200D01*
X170702Y2390971D01*
X191076Y2377357D01*
X213715Y2367980D01*
X237749Y2363200D01*
X262253Y2363200D01*
X286286Y2367981D01*
X308925Y2377358D01*
X329298Y2390971D01*
X335670Y2396200D01*
X339971Y2398499D01*
X344645Y2399917D01*
X355641Y2401000D01*
X644359Y2401000D01*
X655355Y2399917D01*
X660029Y2398499D01*
X664330Y2396200D01*
X670702Y2390971D01*
X691076Y2377357D01*
X713715Y2367980D01*
X737749Y2363200D01*
X762253Y2363200D01*
X786286Y2367981D01*
X808925Y2377358D01*
X829298Y2390971D01*
X835670Y2396200D01*
X839971Y2398499D01*
X844645Y2399917D01*
X855641Y2401000D01*
X1144359Y2401000D01*
X1155355Y2399917D01*
X1160029Y2398499D01*
X1164331Y2396200D01*
X1168104Y2393104D01*
X1171200Y2389331D01*
X1173499Y2385029D01*
X1174917Y2380355D01*
X1176000Y2369359D01*
X1176000Y1480646D01*
X1174672Y1467167D01*
X1174672Y1442663D01*
X1179451Y1418630D01*
X1188828Y1395991D01*
X1202441Y1375616D01*
X1219767Y1358288D01*
X1240141Y1344674D01*
X1243422Y1343315D01*
X1280066Y1323727D01*
X1304047Y1304047D01*
X1323727Y1280066D01*
X1343319Y1243414D01*
X1344678Y1240134D01*
X1358293Y1219761D01*
X1375622Y1202436D01*
X1395998Y1188824D01*
X1418638Y1179449D01*
X1442671Y1174671D01*
X1467167Y1174672D01*
X1480646Y1176000D01*
X2295331Y1176000D01*
X2319717Y1178402D01*
X2343166Y1185515D01*
X2364777Y1197066D01*
X2383719Y1212611D01*
X2399264Y1231553D01*
X2410815Y1253164D01*
X2417928Y1276613D01*
X2420330Y1300999D01*
X2419728Y1313253D01*
X2419000Y1320643D01*
X2419000Y1829360D01*
X2421716Y1856938D01*
X2427971Y1877557D01*
X2438124Y1896553D01*
X2451792Y1913208D01*
X2468447Y1926876D01*
X2487443Y1937029D01*
X2508062Y1943284D01*
X2535640Y1946000D01*
X2994360Y1946000D01*
X3021938Y1943284D01*
X3042557Y1937029D01*
X3061553Y1926876D01*
X3078208Y1913208D01*
X3091876Y1896553D01*
X3102029Y1877557D01*
X3108284Y1856938D01*
X3111000Y1829360D01*
X3111000Y1320640D01*
X3108284Y1293062D01*
X3102029Y1272443D01*
X3091876Y1253447D01*
X3078208Y1236792D01*
X3061553Y1223124D01*
X3042557Y1212971D01*
X3021938Y1206716D01*
X2994360Y1204000D01*
X2529500Y1204000D01*
X2529500Y1203743D01*
X2513753Y1203744D01*
X2489720Y1198964D01*
X2467081Y1189588D01*
X2446705Y1175976D01*
X2429378Y1158649D01*
X2415763Y1138276D01*
X2406384Y1115637D01*
X2401603Y1091604D01*
X2401000Y1079346D01*
X2401000Y855641D01*
X2399917Y844645D01*
X2398499Y839972D01*
X2394761Y832978D01*
X2385383Y810339D01*
X2380602Y786306D01*
X2380602Y761802D01*
X2385382Y737768D01*
X2394759Y715129D01*
X2408372Y694755D01*
X2425699Y677428D01*
X2446073Y663814D01*
X2468712Y654436D01*
X2492745Y649655D01*
X2517249Y649655D01*
X2541283Y654435D01*
X2563923Y663812D01*
X2579893Y672348D01*
X2589501Y675263D01*
X2605640Y676852D01*
X2869360Y676852D01*
X2885499Y675263D01*
X2895108Y672348D01*
X2903972Y667610D01*
X2911737Y661237D01*
X2918110Y653472D01*
X2928162Y634665D01*
X2928980Y632693D01*
X2942601Y612323D01*
X2959934Y595002D01*
X2980313Y581395D01*
X3002955Y572025D01*
X3026989Y567253D01*
X3051494Y567261D01*
X3052537Y567469D01*
X3060800Y566655D01*
X3085186Y569057D01*
X3108635Y576170D01*
X3130246Y587721D01*
X3149188Y603266D01*
X3164733Y622208D01*
X3170428Y634246D01*
X3171350Y633753D01*
X3181890Y653472D01*
X3188263Y661237D01*
X3196028Y667610D01*
X3204892Y672348D01*
X3214501Y675263D01*
X3230640Y676852D01*
X3494360Y676852D01*
X3510496Y675263D01*
X3522716Y671556D01*
X3546749Y666776D01*
X3571253Y666776D01*
X3595286Y671556D01*
X3617925Y680934D01*
X3638300Y694548D01*
X3655627Y711875D01*
X3669240Y732249D01*
X3678618Y754888D01*
X3684000Y791173D01*
X3684000Y901000D01*
X4486000Y901000D01*
X4486000Y-901000D01*
X3684000Y-901000D01*
X3684000Y-591173D01*
X3681598Y-566787D01*
X3674485Y-543338D01*
X3662934Y-521727D01*
X3647389Y-502785D01*
X3628447Y-487240D01*
X3606836Y-475689D01*
X3583387Y-468576D01*
X3559001Y-466174D01*
X3522716Y-471556D01*
X3510496Y-475263D01*
X3494360Y-476852D01*
X3230640Y-476852D01*
X3214501Y-475263D01*
X3204892Y-472348D01*
X3196028Y-467610D01*
X3188263Y-461237D01*
X3181890Y-453472D01*
X3171838Y-434665D01*
X3171020Y-432693D01*
X3157399Y-412323D01*
X3140066Y-395002D01*
X3119687Y-381395D01*
X3097045Y-372025D01*
X3073011Y-367253D01*
X3048506Y-367261D01*
X3047463Y-367469D01*
X3039200Y-366655D01*
X3014814Y-369057D01*
X2991365Y-376170D01*
X2969754Y-387721D01*
X2950812Y-403266D01*
X2935267Y-422208D01*
X2929572Y-434246D01*
X2928650Y-433753D01*
X2918110Y-453472D01*
X2911737Y-461237D01*
X2903972Y-467610D01*
X2895108Y-472348D01*
X2885499Y-475263D01*
X2869360Y-476852D01*
X2605640Y-476852D01*
X2589501Y-475263D01*
X2574434Y-470692D01*
X2562293Y-465662D01*
X2538260Y-460880D01*
X2513756Y-460878D01*
X2489722Y-465657D01*
X2467083Y-475032D01*
X2446707Y-488645D01*
X2429379Y-505970D01*
X2415764Y-526344D01*
X2406385Y-548982D01*
X2401603Y-573015D01*
X2401000Y-585276D01*
X2401000Y-644359D01*
X2399917Y-655355D01*
X2398499Y-660029D01*
X2396200Y-664330D01*
X2390971Y-670702D01*
X2377357Y-691076D01*
X2367980Y-713715D01*
X2363200Y-737749D01*
X2363200Y-762253D01*
X2367981Y-786286D01*
X2377358Y-808925D01*
X2390971Y-829298D01*
X2396200Y-835670D01*
X2398499Y-839971D01*
X2399917Y-844645D01*
X2401000Y-855641D01*
X2401000Y-1110818D01*
X2403402Y-1135204D01*
X2410515Y-1158653D01*
X2422066Y-1180264D01*
X2437611Y-1199206D01*
X2456553Y-1214751D01*
X2478164Y-1226302D01*
X2501613Y-1233415D01*
X2525999Y-1235817D01*
X2545804Y-1232880D01*
X2545808Y-1232923D01*
X2585640Y-1229000D01*
X3044360Y-1229000D01*
X3071938Y-1231716D01*
X3092557Y-1237971D01*
X3111553Y-1248124D01*
X3128208Y-1261792D01*
X3141876Y-1278447D01*
X3152029Y-1297443D01*
X3158284Y-1318062D01*
X3161000Y-1345640D01*
X3161000Y-1854360D01*
X3158284Y-1881938D01*
X3152029Y-1902557D01*
X3141876Y-1921553D01*
X3128208Y-1938208D01*
X3111553Y-1951876D01*
X3092557Y-1962029D01*
X3071938Y-1968284D01*
X3044360Y-1971000D01*
X2585640Y-1971000D01*
X2558062Y-1968284D01*
X2537443Y-1962029D01*
X2518447Y-1951876D01*
X2501792Y-1938208D01*
X2488124Y-1921553D01*
X2477971Y-1902557D01*
X2471716Y-1881938D01*
X2469000Y-1854360D01*
X2469000Y-1345640D01*
X2472190Y-1313251D01*
X2472190Y-1288747D01*
X2467410Y-1264714D01*
X2458032Y-1242075D01*
X2444418Y-1221700D01*
X2427091Y-1204373D01*
X2406717Y-1190760D01*
X2384078Y-1181382D01*
X2347793Y-1176000D01*
X1480646Y-1176000D01*
X1467167Y-1174672D01*
X1442663Y-1174672D01*
X1418630Y-1179451D01*
X1395991Y-1188828D01*
X1375616Y-1202441D01*
X1358288Y-1219767D01*
X1344674Y-1240141D01*
X1343315Y-1243422D01*
X1323727Y-1280066D01*
X1304047Y-1304047D01*
X1280066Y-1323727D01*
X1243414Y-1343319D01*
X1240134Y-1344678D01*
X1219761Y-1358293D01*
X1202436Y-1375622D01*
X1188824Y-1395998D01*
X1179449Y-1418638D01*
X1174671Y-1442671D01*
X1174672Y-1467167D01*
X1176000Y-1480646D01*
X1176000Y-2369359D01*
X1174917Y-2380355D01*
X1173499Y-2385029D01*
X1171200Y-2389331D01*
X1168104Y-2393104D01*
X1164331Y-2396200D01*
X1160029Y-2398499D01*
X1155355Y-2399917D01*
X1144359Y-2401000D01*
X855641Y-2401000D01*
X844645Y-2399917D01*
X839971Y-2398499D01*
X835670Y-2396200D01*
X829298Y-2390971D01*
X808924Y-2377357D01*
X786285Y-2367980D01*
X762251Y-2363200D01*
X737747Y-2363200D01*
X713714Y-2367981D01*
X691075Y-2377358D01*
X670702Y-2390971D01*
X664330Y-2396200D01*
X660029Y-2398499D01*
X655355Y-2399917D01*
X644359Y-2401000D01*
X355641Y-2401000D01*
X344645Y-2399917D01*
X339971Y-2398499D01*
X335670Y-2396200D01*
X329298Y-2390971D01*
X308924Y-2377357D01*
X286285Y-2367980D01*
X262251Y-2363200D01*
X237747Y-2363200D01*
X213714Y-2367981D01*
X191075Y-2377358D01*
X170702Y-2390971D01*
X164330Y-2396200D01*
X160029Y-2398499D01*
X155355Y-2399917D01*
X144359Y-2401000D01*
X-144359Y-2401000D01*
X-155355Y-2399917D01*
X-160029Y-2398499D01*
X-164330Y-2396200D01*
X-170702Y-2390971D01*
X-191076Y-2377357D01*
X-213715Y-2367980D01*
X-237749Y-2363200D01*
X-262253Y-2363200D01*
X-286286Y-2367981D01*
X-308925Y-2377358D01*
X-329298Y-2390971D01*
X-335670Y-2396200D01*
X-339971Y-2398499D01*
X-344645Y-2399917D01*
X-355641Y-2401000D01*
X-644359Y-2401000D01*
X-655355Y-2399917D01*
X-660029Y-2398499D01*
X-664330Y-2396200D01*
X-670702Y-2390971D01*
X-691076Y-2377357D01*
X-713715Y-2367980D01*
X-737749Y-2363200D01*
X-762253Y-2363200D01*
X-786286Y-2367981D01*
X-808925Y-2377358D01*
X-829298Y-2390971D01*
X-835670Y-2396200D01*
X-839971Y-2398499D01*
X-844645Y-2399917D01*
X-855641Y-2401000D01*
X-1144359Y-2401000D01*
X-1155355Y-2399917D01*
X-1160029Y-2398499D01*
X-1164331Y-2396200D01*
X-1168104Y-2393104D01*
X-1171200Y-2389331D01*
X-1173499Y-2385029D01*
X-1174917Y-2380355D01*
X-1176000Y-2369359D01*
X-1176000Y-1480646D01*
X-1174672Y-1467167D01*
X-1174672Y-1442663D01*
X-1179451Y-1418630D01*
X-1188828Y-1395991D01*
X-1202441Y-1375616D01*
X-1219767Y-1358288D01*
X-1240141Y-1344674D01*
X-1243422Y-1343315D01*
X-1280066Y-1323727D01*
X-1304047Y-1304047D01*
X-1323727Y-1280066D01*
X-1343319Y-1243414D01*
X-1344678Y-1240134D01*
X-1358293Y-1219761D01*
X-1375622Y-1202436D01*
X-1395998Y-1188824D01*
X-1418638Y-1179449D01*
X-1442671Y-1174671D01*
X-1467167Y-1174672D01*
X-1480646Y-1176000D01*
X-2369359Y-1176000D01*
X-2380355Y-1174917D01*
X-2385029Y-1173499D01*
X-2389331Y-1171200D01*
X-2393104Y-1168104D01*
X-2396200Y-1164331D01*
X-2398499Y-1160029D01*
X-2399917Y-1155355D01*
X-2401000Y-1144359D01*
X-2401000Y-855641D01*
X-2399917Y-844645D01*
X-2398499Y-839971D01*
X-2396200Y-835670D01*
X-2390971Y-829298D01*
X-2377357Y-808924D01*
X-2367980Y-786285D01*
X-2363200Y-762251D01*
X-2363200Y-737747D01*
X-2367981Y-713714D01*
X-2377358Y-691075D01*
X-2390971Y-670702D01*
X-2396200Y-664330D01*
X-2398499Y-660029D01*
X-2399917Y-655355D01*
X-2401000Y-644359D01*
X-2401000Y-355641D01*
X-2399917Y-344645D01*
X-2398499Y-339971D01*
X-2396200Y-335670D01*
X-2390971Y-329298D01*
X-2377357Y-308924D01*
X-2367980Y-286285D01*
X-2363200Y-262251D01*
X-2363200Y-237747D01*
X-2367981Y-213714D01*
X-2377358Y-191075D01*
X-2390971Y-170702D01*
X-2396200Y-164330D01*
X-2398499Y-160029D01*
X-2399917Y-155355D01*
X-2401000Y-144359D01*
X-2401000Y144359D01*
X-2399917Y155355D01*
X-2398499Y160029D01*
X-2396200Y164330D01*
X-2390971Y170702D01*
X-2377357Y191076D01*
X-2367980Y213715D01*
X-2363200Y237749D01*
X-2363200Y262253D01*
X-2367981Y286286D01*
X-2377358Y308925D01*
X-2390971Y329298D01*
X-2396200Y335670D01*
X-2398499Y339971D01*
X-2399917Y344645D01*
X-2401000Y355641D01*
X-2401000Y644359D01*
X-2399917Y655355D01*
X-2398499Y660029D01*
X-2396200Y664330D01*
X-2390971Y670702D01*
X-2377357Y691076D01*
X-2367980Y713715D01*
X-2363200Y737749D01*
X-2363200Y762253D01*
X-2367981Y786286D01*
X-2377358Y808925D01*
X-2390971Y829298D01*
X-2396200Y835670D01*
X-2398499Y839971D01*
X-2399917Y844645D01*
X-2401000Y855641D01*
X-2401000Y1129601D01*
X-2403402Y1153987D01*
X-2410515Y1177436D01*
X-2422066Y1199047D01*
X-2437611Y1217989D01*
X-2456553Y1233534D01*
X-2478164Y1245085D01*
X-2501613Y1252198D01*
X-2525999Y1254600D01*
X-2845560Y1254600D01*
X-2873138Y1257316D01*
X-2893757Y1263571D01*
X-2912753Y1273724D01*
X-2929408Y1287392D01*
X-2943076Y1304047D01*
X-2953229Y1323043D01*
X-2959484Y1343662D01*
X-2962200Y1371240D01*
X-2962200Y1879960D01*
X-2959484Y1907538D01*
X-2953229Y1928157D01*
X-2943076Y1947153D01*
X-2929408Y1963808D01*
X-2912753Y1977476D01*
X-2893757Y1987629D01*
X-2873138Y1993884D01*
X-2845560Y1996600D01*
X-2386840Y1996600D01*
X-2359262Y1993884D01*
X-2338643Y1987629D01*
X-2319647Y1977476D01*
X-2302992Y1963808D01*
X-2289324Y1947153D01*
X-2279171Y1928157D01*
X-2272916Y1907538D01*
X-2270200Y1879960D01*
X-2270200Y1371240D01*
X-2272916Y1343659D01*
X-2274850Y1337285D01*
X-2279631Y1313252D01*
X-2279631Y1288748D01*
X-2274851Y1264715D01*
X-2265474Y1242076D01*
X-2251860Y1221701D01*
X-2234533Y1204374D01*
X-2214159Y1190760D01*
X-2191520Y1181383D01*
X-2167487Y1176602D01*
X-2155234Y1176000D01*
X-1480646Y1176000D01*
X-1467167Y1174672D01*
X-1442663Y1174672D01*
X-1418630Y1179451D01*
X-1395991Y1188828D01*
X-1375616Y1202441D01*
X-1358288Y1219767D01*
X-1344674Y1240141D01*
X-1343315Y1243422D01*
X-1323727Y1280066D01*
X-1304047Y1304047D01*
X-1280066Y1323727D01*
X-1243414Y1343319D01*
X-1240134Y1344678D01*
X-1219761Y1358293D01*
X-1202436Y1375622D01*
X-1188824Y1395998D01*
X-1179449Y1418638D01*
X-1174671Y1442671D01*
X-1174672Y1467167D01*
X-1176000Y1480646D01*
X-1176000Y2369359D01*
X-1174917Y2380355D01*
X-1173499Y2385029D01*
X-1171200Y2389331D01*
X-1168104Y2393104D01*
X-1164331Y2396200D01*
X-1160029Y2398499D01*
X-1155355Y2399917D01*
X-1144359Y2401000D01*
X-855641Y2401000D01*
X-844645Y2399917D01*
G37*
G36*
X-2766062Y-1291716D02*
G01*
X-2745443Y-1297971D01*
X-2726447Y-1308124D01*
X-2709792Y-1321792D01*
X-2696124Y-1338447D01*
X-2685971Y-1357443D01*
X-2679716Y-1378062D01*
X-2677000Y-1405640D01*
X-2677000Y-1864360D01*
X-2679716Y-1891938D01*
X-2685971Y-1912557D01*
X-2696124Y-1931553D01*
X-2709792Y-1948208D01*
X-2726447Y-1961876D01*
X-2745443Y-1972029D01*
X-2766062Y-1978284D01*
X-2793640Y-1981000D01*
X-3302360Y-1981000D01*
X-3329938Y-1978284D01*
X-3350557Y-1972029D01*
X-3369553Y-1961876D01*
X-3386208Y-1948208D01*
X-3399876Y-1931553D01*
X-3410029Y-1912557D01*
X-3416284Y-1891938D01*
X-3419000Y-1864360D01*
X-3419000Y-1405640D01*
X-3416284Y-1378062D01*
X-3410029Y-1357443D01*
X-3399876Y-1338447D01*
X-3386208Y-1321792D01*
X-3369553Y-1308124D01*
X-3350557Y-1297971D01*
X-3329938Y-1291716D01*
X-3302360Y-1289000D01*
X-2793640Y-1289000D01*
X-2766062Y-1291716D01*
G37*
G36*
X4041938Y-1231716D02*
G01*
X4062557Y-1237971D01*
X4081553Y-1248124D01*
X4098208Y-1261792D01*
X4111876Y-1278447D01*
X4122029Y-1297443D01*
X4128284Y-1318062D01*
X4131000Y-1345640D01*
X4131000Y-1854360D01*
X4128284Y-1881938D01*
X4122029Y-1902557D01*
X4111876Y-1921553D01*
X4098208Y-1938208D01*
X4081553Y-1951876D01*
X4062557Y-1962029D01*
X4041938Y-1968284D01*
X4014360Y-1971000D01*
X3555640Y-1971000D01*
X3528062Y-1968284D01*
X3507443Y-1962029D01*
X3488447Y-1951876D01*
X3471792Y-1938208D01*
X3458124Y-1921553D01*
X3447971Y-1902557D01*
X3441716Y-1881938D01*
X3439000Y-1854360D01*
X3439000Y-1345640D01*
X3441716Y-1318062D01*
X3447971Y-1297443D01*
X3458124Y-1278447D01*
X3471792Y-1261792D01*
X3488447Y-1248124D01*
X3507443Y-1237971D01*
X3528062Y-1231716D01*
X3555640Y-1229000D01*
X4014360Y-1229000D01*
X4041938Y-1231716D01*
G37*
G36*
X-6576062Y-840216D02*
G01*
X-6555443Y-846471D01*
X-6536447Y-856624D01*
X-6519792Y-870292D01*
X-6506124Y-886947D01*
X-6495971Y-905943D01*
X-6489716Y-926562D01*
X-6487000Y-954140D01*
X-6487000Y-1412860D01*
X-6489716Y-1440438D01*
X-6495971Y-1461057D01*
X-6506124Y-1480053D01*
X-6519792Y-1496708D01*
X-6536447Y-1510376D01*
X-6555443Y-1520529D01*
X-6576062Y-1526784D01*
X-6603640Y-1529500D01*
X-7112360Y-1529500D01*
X-7139938Y-1526784D01*
X-7160557Y-1520529D01*
X-7179553Y-1510376D01*
X-7196208Y-1496708D01*
X-7209876Y-1480053D01*
X-7220029Y-1461057D01*
X-7226284Y-1440438D01*
X-7229000Y-1412860D01*
X-7229000Y-954140D01*
X-7226284Y-926562D01*
X-7220029Y-905943D01*
X-7209876Y-886947D01*
X-7196208Y-870292D01*
X-7179553Y-856624D01*
X-7160557Y-846471D01*
X-7139938Y-840216D01*
X-7112360Y-837500D01*
X-6603640Y-837500D01*
X-6576062Y-840216D01*
G37*
G36*
X-3329262Y1993884D02*
G01*
X-3308643Y1987629D01*
X-3289647Y1977476D01*
X-3272992Y1963808D01*
X-3259324Y1947153D01*
X-3249171Y1928157D01*
X-3242916Y1907538D01*
X-3240200Y1879960D01*
X-3240200Y1371240D01*
X-3242916Y1343662D01*
X-3249171Y1323043D01*
X-3259324Y1304047D01*
X-3272992Y1287392D01*
X-3289647Y1273724D01*
X-3308643Y1263571D01*
X-3329262Y1257316D01*
X-3356840Y1254600D01*
X-3815560Y1254600D01*
X-3843142Y1257317D01*
X-3864866Y1263906D01*
X-3888899Y1268686D01*
X-3913403Y1268686D01*
X-3937436Y1263905D01*
X-3960075Y1254527D01*
X-3980449Y1240913D01*
X-3997776Y1223586D01*
X-4011389Y1203211D01*
X-4020766Y1180572D01*
X-4026148Y1144289D01*
X-4026148Y931140D01*
X-4027737Y915001D01*
X-4030652Y905392D01*
X-4035390Y896528D01*
X-4048711Y880296D01*
X-4062324Y859921D01*
X-4071701Y837282D01*
X-4076481Y813249D01*
X-4076481Y788745D01*
X-4071700Y764711D01*
X-4062322Y742073D01*
X-4048708Y721699D01*
X-4031381Y704372D01*
X-4011006Y690759D01*
X-3988367Y681382D01*
X-3952084Y676000D01*
X-3677000Y676000D01*
X-3677000Y-676000D01*
X-3902001Y-676000D01*
X-3926387Y-678402D01*
X-3949836Y-685515D01*
X-3971447Y-697066D01*
X-3990389Y-712611D01*
X-4005934Y-731553D01*
X-4017485Y-753164D01*
X-4024598Y-776613D01*
X-4027000Y-800999D01*
X-4027000Y-1526000D01*
X-5879000Y-1526000D01*
X-5879000Y-800999D01*
X-5881402Y-776613D01*
X-5888515Y-753164D01*
X-5900066Y-731553D01*
X-5915611Y-712611D01*
X-5934553Y-697066D01*
X-5956164Y-685515D01*
X-5979613Y-678402D01*
X-6003999Y-676000D01*
X-6229000Y-676000D01*
X-6229000Y624001D01*
X-5452000Y624001D01*
X-5452000Y-624001D01*
X-5449598Y-648387D01*
X-5442485Y-671836D01*
X-5430934Y-693447D01*
X-5415389Y-712389D01*
X-5396447Y-727934D01*
X-5374836Y-739485D01*
X-5351387Y-746598D01*
X-5327001Y-749000D01*
X-4578999Y-749000D01*
X-4554613Y-746598D01*
X-4531164Y-739485D01*
X-4509553Y-727934D01*
X-4490611Y-712389D01*
X-4475066Y-693447D01*
X-4463515Y-671836D01*
X-4456402Y-648387D01*
X-4454000Y-624001D01*
X-4454000Y624001D01*
X-4456402Y648387D01*
X-4463515Y671836D01*
X-4475066Y693447D01*
X-4490611Y712389D01*
X-4509553Y727934D01*
X-4531164Y739485D01*
X-4554613Y746598D01*
X-4578999Y749000D01*
X-5327001Y749000D01*
X-5351387Y746598D01*
X-5374836Y739485D01*
X-5396447Y727934D01*
X-5415389Y712389D01*
X-5430934Y693447D01*
X-5442485Y671836D01*
X-5449598Y648387D01*
X-5452000Y624001D01*
X-6229000Y624001D01*
X-6229000Y676000D01*
X-6003999Y676000D01*
X-5979613Y678402D01*
X-5956164Y685515D01*
X-5934553Y697066D01*
X-5915611Y712611D01*
X-5900066Y731553D01*
X-5888515Y753164D01*
X-5881402Y776613D01*
X-5879000Y800999D01*
X-5879000Y1526000D01*
X-4461950Y1526000D01*
X-4449836Y1519525D01*
X-4426387Y1512412D01*
X-4402001Y1510010D01*
X-4377615Y1512412D01*
X-4354166Y1519525D01*
X-4349254Y1521848D01*
X-4337999Y1525263D01*
X-4321860Y1526852D01*
X-4084143Y1526852D01*
X-4078001Y1526247D01*
X-4078000Y1526247D01*
X-4069453Y1525405D01*
X-4044949Y1525405D01*
X-4020915Y1530185D01*
X-3998276Y1539562D01*
X-3977902Y1553175D01*
X-3960575Y1570502D01*
X-3946961Y1590876D01*
X-3937583Y1613515D01*
X-3932802Y1637548D01*
X-3932200Y1649802D01*
X-3932200Y1879960D01*
X-3929484Y1907538D01*
X-3923229Y1928157D01*
X-3913076Y1947153D01*
X-3899408Y1963808D01*
X-3882753Y1977476D01*
X-3863757Y1987629D01*
X-3843138Y1993884D01*
X-3815560Y1996600D01*
X-3356840Y1996600D01*
X-3329262Y1993884D01*
G37*
G36*
X-2766062Y-321716D02*
G01*
X-2745443Y-327971D01*
X-2726447Y-338124D01*
X-2709792Y-351792D01*
X-2696124Y-368447D01*
X-2685971Y-387443D01*
X-2679716Y-408062D01*
X-2677000Y-435640D01*
X-2677000Y-894360D01*
X-2679716Y-921938D01*
X-2685971Y-942557D01*
X-2696124Y-961553D01*
X-2709792Y-978208D01*
X-2726447Y-991876D01*
X-2745443Y-1002029D01*
X-2766062Y-1008284D01*
X-2793640Y-1011000D01*
X-3302360Y-1011000D01*
X-3329938Y-1008284D01*
X-3350557Y-1002029D01*
X-3369553Y-991876D01*
X-3386208Y-978208D01*
X-3399876Y-961553D01*
X-3410029Y-942557D01*
X-3416284Y-921938D01*
X-3419000Y-894360D01*
X-3419000Y-435640D01*
X-3416284Y-408062D01*
X-3410029Y-387443D01*
X-3399876Y-368447D01*
X-3386208Y-351792D01*
X-3369553Y-338124D01*
X-3350557Y-327971D01*
X-3329938Y-321716D01*
X-3302360Y-319000D01*
X-2793640Y-319000D01*
X-2766062Y-321716D01*
G37*
G36*
X25486000Y-901000D02*
G01*
X24684000Y-901000D01*
X24684000Y901000D01*
X25486000Y901000D01*
X25486000Y-901000D01*
G37*
G36*
X27316000Y-901000D02*
G01*
X26514000Y-901000D01*
X26514000Y901000D01*
X27316000Y901000D01*
X27316000Y-901000D01*
G37*
G36*
X7486000Y-901000D02*
G01*
X6684000Y-901000D01*
X6684000Y901000D01*
X7486000Y901000D01*
X7486000Y-901000D01*
G37*
G36*
X6316000Y-901000D02*
G01*
X5514000Y-901000D01*
X5514000Y901000D01*
X6316000Y901000D01*
X6316000Y-901000D01*
G37*
G36*
X9316000Y-901000D02*
G01*
X8514000Y-901000D01*
X8514000Y901000D01*
X9316000Y901000D01*
X9316000Y-901000D01*
G37*
G36*
X12316000Y-901000D02*
G01*
X11514000Y-901000D01*
X11514000Y901000D01*
X12316000Y901000D01*
X12316000Y-901000D01*
G37*
G36*
X15316000Y-901000D02*
G01*
X14514000Y-901000D01*
X14514000Y901000D01*
X15316000Y901000D01*
X15316000Y-901000D01*
G37*
G36*
X16486000Y-901000D02*
G01*
X15684000Y-901000D01*
X15684000Y901000D01*
X16486000Y901000D01*
X16486000Y-901000D01*
G37*
G36*
X13486000Y-901000D02*
G01*
X12684000Y-901000D01*
X12684000Y901000D01*
X13486000Y901000D01*
X13486000Y-901000D01*
G37*
G36*
X10486000Y-901000D02*
G01*
X9684000Y-901000D01*
X9684000Y901000D01*
X10486000Y901000D01*
X10486000Y-901000D01*
G37*
G36*
X24316000Y-901000D02*
G01*
X23514000Y-901000D01*
X23514000Y901000D01*
X24316000Y901000D01*
X24316000Y-901000D01*
G37*
G36*
X18316000Y-901000D02*
G01*
X17514000Y-901000D01*
X17514000Y901000D01*
X18316000Y901000D01*
X18316000Y-901000D01*
G37*
G36*
X22486000Y-901000D02*
G01*
X21684000Y-901000D01*
X21684000Y901000D01*
X22486000Y901000D01*
X22486000Y-901000D01*
G37*
G36*
X19486000Y-901000D02*
G01*
X18684000Y-901000D01*
X18684000Y901000D01*
X19486000Y901000D01*
X19486000Y-901000D01*
G37*
G36*
X21316000Y-901000D02*
G01*
X20514000Y-901000D01*
X20514000Y901000D01*
X21316000Y901000D01*
X21316000Y-901000D01*
G37*
G36*
X-7866358Y770219D02*
G01*
X-7749221Y721699D01*
X-7720584Y709837D01*
X-7589392Y622178D01*
X-7477822Y510608D01*
X-7459885Y483763D01*
X-7390162Y379414D01*
X-7329781Y233642D01*
X-7326401Y216650D01*
X-7319288Y193201D01*
X-7307737Y171590D01*
X-7292192Y152648D01*
X-7273250Y137103D01*
X-7251640Y125551D01*
X-7228191Y118438D01*
X-7203805Y116036D01*
X-7167521Y121418D01*
X-7139942Y129783D01*
X-7112360Y132500D01*
X-6603640Y132500D01*
X-6576062Y129784D01*
X-6555443Y123529D01*
X-6536447Y113376D01*
X-6519792Y99708D01*
X-6506124Y83053D01*
X-6495971Y64057D01*
X-6489716Y43438D01*
X-6487000Y15860D01*
X-6487000Y-442860D01*
X-6489716Y-470438D01*
X-6495971Y-491057D01*
X-6506124Y-510053D01*
X-6519792Y-526708D01*
X-6536447Y-540376D01*
X-6555443Y-550529D01*
X-6576062Y-556784D01*
X-6603640Y-559500D01*
X-7112360Y-559500D01*
X-7139938Y-556784D01*
X-7160557Y-550529D01*
X-7179553Y-540376D01*
X-7196208Y-526708D01*
X-7209876Y-510053D01*
X-7220527Y-490126D01*
X-7229100Y-469426D01*
X-7242714Y-449052D01*
X-7260040Y-431724D01*
X-7280414Y-418110D01*
X-7303053Y-408732D01*
X-7327086Y-403951D01*
X-7351590Y-403951D01*
X-7375624Y-408731D01*
X-7398263Y-418107D01*
X-7418637Y-431721D01*
X-7435965Y-449047D01*
X-7443274Y-458903D01*
X-7477822Y-510608D01*
X-7589392Y-622178D01*
X-7720584Y-709837D01*
X-7720585Y-709838D01*
X-7720586Y-709838D01*
X-7866358Y-770219D01*
X-8021107Y-801000D01*
X-8178893Y-801000D01*
X-8333642Y-770219D01*
X-8479414Y-709838D01*
X-8479415Y-709838D01*
X-8479416Y-709837D01*
X-8610608Y-622178D01*
X-8722178Y-510608D01*
X-8809837Y-379416D01*
X-8811182Y-376170D01*
X-8870219Y-233642D01*
X-8901000Y-78893D01*
X-8901000Y78893D01*
X-8870219Y233642D01*
X-8809838Y379414D01*
X-8740115Y483763D01*
X-8722178Y510608D01*
X-8610608Y622178D01*
X-8479416Y709837D01*
X-8450779Y721699D01*
X-8333642Y770219D01*
X-8178893Y801000D01*
X-8021107Y801000D01*
X-7866358Y770219D01*
G37*
G36*
X3991938Y1943284D02*
G01*
X4012557Y1937029D01*
X4031553Y1926876D01*
X4048208Y1913208D01*
X4061876Y1896553D01*
X4072029Y1877557D01*
X4078284Y1856938D01*
X4081000Y1829360D01*
X4081000Y1320640D01*
X4078284Y1293062D01*
X4072029Y1272443D01*
X4061876Y1253447D01*
X4048208Y1236792D01*
X4031553Y1223124D01*
X4012557Y1212971D01*
X3991938Y1206716D01*
X3964360Y1204000D01*
X3505640Y1204000D01*
X3478062Y1206716D01*
X3457443Y1212971D01*
X3438447Y1223124D01*
X3421792Y1236792D01*
X3408124Y1253447D01*
X3397971Y1272443D01*
X3391716Y1293062D01*
X3389000Y1320640D01*
X3389000Y1829360D01*
X3391716Y1856938D01*
X3397971Y1877557D01*
X3408124Y1896553D01*
X3421792Y1913208D01*
X3438447Y1926876D01*
X3457443Y1937029D01*
X3478062Y1943284D01*
X3505640Y1946000D01*
X3964360Y1946000D01*
X3991938Y1943284D01*
G37*
G36*
X-4909922Y3075803D02*
G01*
X-4857150Y3065306D01*
X-4757730Y3024125D01*
X-4668254Y2964339D01*
X-4592161Y2888246D01*
X-4532375Y2798770D01*
X-4491194Y2699350D01*
X-4470200Y2593806D01*
X-4470200Y2486194D01*
X-4491194Y2380650D01*
X-4532375Y2281230D01*
X-4592161Y2191754D01*
X-4668254Y2115661D01*
X-4757730Y2055875D01*
X-4857150Y2014694D01*
X-4909922Y2004197D01*
X-4962693Y1993700D01*
X-5070307Y1993700D01*
X-5123078Y2004197D01*
X-5175850Y2014694D01*
X-5275270Y2055875D01*
X-5364746Y2115661D01*
X-5440839Y2191754D01*
X-5500625Y2281230D01*
X-5541806Y2380650D01*
X-5562800Y2486194D01*
X-5562800Y2593806D01*
X-5541806Y2699350D01*
X-5500625Y2798770D01*
X-5440839Y2888246D01*
X-5364746Y2964339D01*
X-5275270Y3024125D01*
X-5175850Y3065306D01*
X-5123078Y3075803D01*
X-5070307Y3086300D01*
X-4962693Y3086300D01*
X-4909922Y3075803D01*
G37*
M02*
